<svg width="106" height="110" viewBox="0 0 106 110" fill="none" xmlns="http://www.w3.org/2000/svg">
<g filter="url(#filter0_f_1_1685)">
<circle cx="22.2618" cy="26.2253" r="12.7912" fill="#FFF"/>
</g>
<g filter="url(#filter1_f_1_1685)">
<circle cx="83.0201" cy="23.0275" r="13.8571" fill="#FFF"/>
</g>
<path d="M76.3472 24.2591C76.9715 22.7428 77.8337 21.2861 79.1418 20.1563C80.4202 18.9969 82.1743 18.3131 83.9284 18.3725C85.6527 18.3725 87.5554 19.1752 88.3582 20.8104C88.7744 21.5537 88.8636 22.5645 88.5663 23.3672C88.269 24.1699 88.6555 24.6456 89.1609 25.3591C90.3501 27.024 89.3095 29.3727 87.7636 30.324C86.2176 31.3943 84.2554 31.6322 82.5311 31.2457C80.8067 30.8294 79.2607 30.0862 77.9526 28.897C76.7337 27.678 75.7823 25.9537 76.2877 24.2888L76.3472 24.2591ZM76.4958 24.3186C76.0201 25.8943 77.3877 27.3808 78.6364 28.0943C79.9743 28.8078 81.4608 29.4024 82.9176 29.67C84.3446 29.9375 85.8608 29.8484 87.0798 29.1348C88.2392 28.451 89.1312 27.024 88.5366 25.7456C88.3879 25.4186 88.1203 25.0321 88.0014 24.5564C87.8825 24.0807 88.0014 23.5753 88.1203 23.1888C88.4176 22.4455 88.3879 21.7023 87.9717 21.0185C87.169 19.6509 85.4446 19.4131 83.9878 19.5915C82.5013 19.7401 81.0743 20.1861 79.677 20.8996C78.3094 21.6131 77.0607 22.7726 76.4661 24.3186H76.4958Z" fill="#7631e4"/>
<path d="M86.0095 30.5024C86.6636 30.6213 86.842 31.2159 87.0501 31.6619C87.2582 32.2565 86.9906 32.97 86.7528 33.3565C86.6041 33.7133 86.2771 34.0998 86.2473 34.4268C86.1582 34.7836 86.1582 35.3484 85.7717 35.9133C84.9392 36.9836 83.75 37.0133 82.7987 36.9539C81.8176 36.8944 80.8959 36.716 79.9446 36.5377C78.9932 36.3295 78.0716 36.0917 77.1499 35.3782C76.2877 34.6646 75.7229 33.5944 75.5742 32.5538C75.3067 30.4727 75.8715 28.5997 76.585 26.8456H76.7337C76.9121 28.7781 76.7634 30.6511 77.1202 32.2862C77.2986 33.089 77.5661 33.8025 78.0716 34.3376C78.6067 34.843 79.4391 35.3187 80.2121 35.7647C81.0148 36.1809 81.9068 36.5079 82.7987 36.4782C83.6608 36.4782 84.523 35.8539 84.7014 35.3187C84.7906 35.0809 84.8203 34.6646 84.9689 34.1295C85.1176 33.5052 85.5041 33.2079 85.8014 32.7619C86.069 32.4052 86.3068 32.197 86.2771 31.8403C86.2771 31.4538 86.2771 30.9187 86.0095 30.6808V30.5322V30.5024Z" fill="#7631e4"/>
<path d="M86.4852 19.3536C86.6636 18.9968 86.5744 18.5212 86.4852 18.1347C86.4257 17.7185 86.1879 17.5995 85.8906 17.3319C85.2663 16.9157 84.1068 16.0536 83.8987 15.2211C83.6905 14.567 82.9473 14.0319 82.0554 14.0914C81.1932 14.1508 80.4202 14.7157 79.7959 15.34C79.2013 16.0536 78.6364 16.7671 78.0121 17.3914C77.3878 18.0158 76.7634 18.6995 76.3472 19.3536C75.3661 20.5725 75.6634 22.2672 76.3472 24.051L76.2283 24.1402C75.5148 23.4861 74.8904 22.7131 74.5931 21.7023C74.2661 20.6915 74.4445 19.4131 75.0093 18.5212C75.5445 17.5995 76.2877 17.0049 77.031 16.3806C77.7743 15.7563 78.5175 15.1616 79.3202 14.686C80.1527 14.2103 81.0446 13.7643 82.0257 13.6157C82.9473 13.4373 84.2554 13.5562 84.9689 14.5968C85.4744 15.5184 85.9501 15.6968 86.6933 16.5292C87.0501 16.886 87.3771 17.5995 87.2879 18.1347C87.1987 18.6401 87.0798 19.205 86.5744 19.5023L86.4852 19.3833V19.3536Z" fill="#7631e4"/>
<path d="M80.9256 13.7941C80.8364 13.467 80.4797 13.2589 80.2121 13.0805C79.8851 12.8724 79.7364 12.9022 79.3797 12.9319C78.6959 13.0805 77.5067 12.9022 76.8823 12.5454C76.1985 12.2184 75.5445 11.8319 74.8904 12.1886C74.2661 12.5157 73.8796 13.2887 73.7309 14.0022C73.5228 15.459 73.8201 16.9455 74.0877 18.4617C74.2958 19.8888 74.8309 21.2563 75.6337 22.7131L75.5445 22.832C74.0282 22.0591 72.9579 20.5131 72.5417 18.7887C72.2742 17.1833 72.1255 15.34 72.9877 13.7643C73.4336 12.9914 73.939 12.3373 74.6526 11.8021C75.3958 11.2373 76.4958 11.2373 77.2688 11.3859C78.1607 11.594 78.5472 11.7427 79.4689 11.8021C79.9148 11.8021 80.5689 12.1589 80.777 12.5454C81.0148 12.9022 81.3121 13.3778 81.104 13.8833H80.9554L80.9256 13.7941Z" fill="#7631e4"/>
<path d="M76.258 29.224C75.2174 29.2537 74.1472 29.0754 73.1363 28.57C72.1255 28.0943 71.2633 27.1726 70.8768 26.0132C70.5201 24.7942 70.7876 23.5456 71.3822 22.5942C71.9769 21.6428 72.839 20.959 73.7904 20.4834C73.2552 21.405 72.7201 22.2374 72.4228 23.0996C72.1552 23.9618 72.0363 24.824 72.3039 25.5672C72.512 26.3402 73.1066 27.024 73.7904 27.6186C74.5039 28.2132 75.3958 28.6889 76.2877 29.224H76.258Z" fill="#7631e4"/>
<path d="M76.4661 24.3483C78.6067 25.0321 80.9554 25.2105 83.2743 24.9132C81.0743 25.7159 78.6364 26.0429 76.1985 25.8051L76.4958 24.3483H76.4661Z" fill="#7631e4"/>
<path d="M74.9796 22.3861C75.7823 21.7915 76.6148 20.7212 77.4472 19.8293C78.3094 18.9671 79.2608 17.9266 80.5392 17.8374C79.3499 18.1941 78.6662 19.3239 78.0121 20.305C77.3283 21.3455 76.8823 22.3861 75.931 23.5158L74.9499 22.3861H74.9796Z" fill="#7631e4"/>
<path d="M73.6715 19.7401C74.2364 18.1049 75.0985 16.6184 76.1688 15.3995C75.5148 16.886 75.158 18.4617 75.1283 20.0077L73.6715 19.7401Z" fill="#7631e4"/>
<path d="M76.1986 28.7483C77.2094 28.7483 77.2986 29.2835 77.477 29.4619L77.9229 30.1159C78.1905 30.5024 78.5175 30.7403 78.9932 30.9781C79.9148 31.4835 80.8959 31.87 81.877 32.316C80.8365 32.1078 79.7662 31.9592 78.6959 31.6619C78.1905 31.543 77.5364 31.3051 77.0905 30.8592L76.4661 30.2943C76.3175 30.0862 76.0202 30.1159 76.4661 30.2051L76.1688 28.7483H76.1986Z" fill="#7631e4"/>
<path d="M26.5492 28.7186C25.2708 29.7294 23.7843 30.5619 22.0599 30.8889C20.3653 31.2457 18.5221 30.9781 17.0058 30.0565C15.5193 29.1646 14.2409 27.5294 14.3598 25.7456C14.3598 24.8834 14.8058 23.9618 15.4301 23.4266C16.1139 22.8915 15.995 22.2672 15.9058 21.405C15.7274 19.3536 17.7788 17.8671 19.5923 17.8076C21.4653 17.659 23.2789 18.432 24.587 19.6212C25.8951 20.8401 26.8465 22.2374 27.3816 23.932C27.8276 25.5969 27.7979 27.5591 26.5492 28.7483V28.7186ZM26.46 28.5997C27.6492 27.4699 27.2033 25.5077 26.46 24.2591C25.6573 22.9807 24.6465 21.7023 23.5464 20.7509C22.4464 19.7996 21.0788 19.1455 19.6815 19.1455C18.3437 19.1455 16.8572 19.9482 16.7382 21.3752C16.7085 21.7617 16.7382 22.178 16.6193 22.6536C16.5004 23.1293 16.1139 23.5158 15.8463 23.7834C15.222 24.2888 14.8652 24.9429 14.895 25.7159C14.9247 27.2915 16.2923 28.3618 17.6302 28.9267C18.9977 29.551 20.4545 29.8484 22.0005 29.9376C23.5464 29.9673 25.2113 29.6105 26.46 28.57V28.5997Z" fill="#7631e4"/>
<path d="M21.287 18.4617C20.7815 18.0455 20.9302 17.4212 20.9599 16.9455C21.0788 16.3211 21.6437 15.8454 22.0599 15.6373C22.3572 15.3995 22.8627 15.2211 23.041 14.9833C23.2789 14.7157 23.5762 14.24 24.2005 13.913C25.4492 13.4076 26.4897 13.9725 27.2924 14.5076C28.0952 15.0427 28.8384 15.6671 29.5519 16.2914C30.2655 16.9455 30.9493 17.6293 31.3952 18.6996C31.8114 19.7698 31.7222 20.959 31.3655 21.9401C30.5628 23.8726 29.1357 25.2402 27.6195 26.3997L27.5006 26.3105C28.3033 24.5564 29.3736 23.0104 29.8492 21.4347C30.0871 20.6617 30.2357 19.9185 30.0574 19.1752C29.8492 18.4914 29.3736 17.6293 28.9276 16.8563C28.4222 16.0833 27.8276 15.3698 27.0249 14.9536C26.2816 14.5076 25.2411 14.6265 24.7951 15.013C24.587 15.1617 24.3789 15.5184 23.9627 15.9049C23.5167 16.3806 23.041 16.4401 22.5653 16.6779C22.1491 16.8563 21.8518 16.9157 21.6734 17.2428C21.4951 17.5995 21.2275 18.0752 21.3167 18.3725L21.2275 18.4914L21.287 18.4617Z" fill="#7631e4"/>
<path d="M15.3112 27.8862C14.9842 28.0943 14.8058 28.57 14.6869 28.9267C14.5382 29.3132 14.6869 29.5213 14.8058 29.9078C15.1328 30.5619 15.7274 31.8997 15.4598 32.7322C15.3112 33.3862 15.6977 34.2484 16.5004 34.6349C17.2734 35.0214 18.2247 34.9322 19.0869 34.6944C19.9491 34.3971 20.8113 34.0403 21.6734 33.8025C22.5356 33.5646 23.4275 33.2971 24.1113 32.9106C25.5681 32.3457 26.133 30.7403 26.46 28.8375H26.6087C26.906 29.7294 27.0249 30.7403 26.8168 31.7808C26.6087 32.8214 25.8059 33.8322 24.8546 34.3376C23.9329 34.8728 22.9816 35.0214 22.0302 35.17C21.0788 35.3484 20.1275 35.4674 19.2058 35.4971C18.2545 35.4971 17.2734 35.4376 16.322 35.0809C15.4301 34.7836 14.3598 34.0106 14.2409 32.7619C14.2409 31.6916 13.9436 31.3051 13.7058 30.2349C13.5571 29.7592 13.6463 28.9565 14.0031 28.5402C14.3301 28.1537 14.7166 27.7078 15.3112 27.7078V27.8564V27.8862Z" fill="#7631e4"/>
<path d="M17.3626 35.4971C17.2734 35.8241 17.4815 36.1809 17.6302 36.4782C17.8085 36.8349 17.9572 36.8647 18.2842 37.0133C18.968 37.2214 19.8896 37.9944 20.2761 38.589C20.6924 39.2134 21.0789 39.8674 21.8221 39.8972C22.5356 39.8972 23.2492 39.4512 23.7248 38.8863C24.6465 37.7268 25.1222 36.2998 25.6573 34.8728C26.1924 33.5349 26.4303 32.0781 26.4303 30.443H26.5789C27.5006 31.8106 27.6789 33.7133 27.1735 35.4079C26.6087 36.9241 25.8357 38.589 24.26 39.5404C23.487 39.9863 22.714 40.3134 21.8518 40.4026C20.9302 40.5215 19.9788 39.9863 19.3842 39.4512C18.7302 38.8269 18.4626 38.4998 17.6896 37.9944C17.3031 37.7863 16.9166 37.1323 16.9166 36.716C16.8869 36.2701 16.8572 35.7349 17.2734 35.4079L17.3626 35.5268V35.4971Z" fill="#7631e4"/>
<path d="M29.106 24.4375C30.0276 24.9131 30.8601 25.6267 31.4844 26.5483C32.1087 27.47 32.4358 28.6889 32.1682 29.9078C31.8709 31.1268 31.0087 32.1078 30.0276 32.6133C29.0168 33.1484 27.9465 33.3268 26.9059 33.2376C27.8276 32.7322 28.7195 32.2565 29.4033 31.6619C30.0573 31.0673 30.5925 30.3538 30.7411 29.5808C30.9195 28.8078 30.7709 27.9159 30.5033 27.0537C30.1763 26.1916 29.6411 25.3294 29.1357 24.4077L29.106 24.4375Z" fill="#7631e4"/>
<path d="M26.4897 28.57C24.9735 26.9348 23.041 25.5672 20.8707 24.705C23.1897 25.1213 25.4492 26.0429 27.4708 27.4402L26.4897 28.57Z" fill="#7631e4"/>
<path d="M26.8167 31.0376C25.8059 31.1565 24.587 31.6619 23.3978 32.0187C22.2383 32.316 20.8707 32.7322 19.7112 32.197C20.9302 32.4943 22.0599 31.8403 23.1302 31.3349C24.2302 30.77 25.1519 30.0862 26.5194 29.6105L26.8167 31.0673V31.0376Z" fill="#7631e4"/>
<path d="M26.9059 33.3565C25.5086 34.5754 23.9924 35.7944 22.268 36.4484C23.7248 35.3484 24.7951 33.8619 25.7762 32.3754L26.9059 33.3565Z" fill="#7631e4"/>
<path d="M28.9276 24.8834C28.0654 24.4077 28.2438 23.8726 28.1546 23.6348L28.0951 22.8618C28.0951 22.4158 27.887 22.0293 27.5897 21.5536C27.0546 20.6617 26.3708 19.8293 25.7465 18.9671C26.5492 19.6509 27.3816 20.3347 28.1843 21.1077C28.5708 21.4645 28.9871 21.9996 29.1654 22.5942L29.4033 23.3969C29.4033 23.6347 29.7006 23.7537 29.3735 23.4861L28.8979 24.8834H28.9276Z" fill="#7631e4"/>
<path d="M32.2871 29.1943C37.5791 33.8917 41.4737 40.1053 43.9711 46.7054C46.3197 53.3947 47.6576 60.3218 48.936 67.2192C51.3144 81.1329 51.3739 95.225 51.3739 109.258H51.2252C49.4414 95.2845 49.5009 81.2518 48.1333 67.3381C47.5387 60.3515 45.6954 53.5136 42.8413 47.1513C40.1656 40.7296 36.7466 34.6647 32.1979 29.2835L32.3168 29.1943H32.2871Z" fill="#7631e4"/>
<path d="M71.5012 26.0429C68.6471 28.57 65.9119 31.097 63.2362 33.743C60.4118 36.2403 57.8848 39.1242 56.1604 42.5134C52.6226 49.2027 50.0657 56.1595 48.1333 63.5326H47.9846C48.1333 55.8325 50.9874 48.281 55.4766 42.0674C57.7956 39.0052 59.9064 35.8836 62.3443 32.8808C64.9011 30.0267 67.993 27.6186 71.412 25.8942L71.5012 26.0132V26.0429Z" fill="#7631e4"/>
<path d="M41.7413 42.6323C42.6332 39.7782 43.5251 36.835 43.2575 33.8619C42.9602 30.4727 41.2062 27.3808 40.8197 24.051C39.4818 26.7861 38.5304 29.7294 38.5007 32.7619C38.471 35.7944 39.3629 38.916 41.7413 42.6026V42.6323Z" stroke="#7631e4" stroke-width="0.63956" stroke-miterlimit="10"/>
<path d="M41.3845 41.9783C40.7899 38.7971 40.6413 35.5566 40.9386 32.3754C40.9386 35.5566 41.3845 38.7377 42.2467 41.7701L41.3845 41.9783Z" fill="#7631e4"/>
<path d="M43.0197 47.3297C41.8008 45.3972 40.5521 43.4053 38.6196 42.335C36.4196 41.1161 33.5358 41.235 31.306 40.135C32.1682 42.3945 33.4168 44.4162 35.2304 45.754C37.0439 47.0919 39.4223 47.6865 43.0494 47.3297H43.0197Z" stroke="#7631e4" stroke-width="0.63956" stroke-miterlimit="10"/>
<path d="M43.0197 47.3297C41.8008 45.3972 40.5521 43.4053 38.6196 42.335C36.4196 41.1161 33.5358 41.235 31.306 40.135C32.1682 42.3945 33.4168 44.4162 35.2304 45.754C37.0439 47.0919 39.4223 47.6865 43.0494 47.3297H43.0197Z" stroke="#7631e4" stroke-width="0.63956" stroke-miterlimit="10"/>
<path d="M42.5143 47.181C40.2548 46.3189 38.1737 45.0107 36.4196 43.4053C38.352 44.7729 40.5521 45.754 42.7818 46.3188L42.5143 47.181Z" fill="#7631e4"/>
<path d="M49.2333 62.2542C50.3631 60.2623 51.5225 58.2109 53.4252 57.0812C55.5658 55.7731 58.4794 55.7433 60.62 54.5541C59.847 56.8433 58.6875 58.9244 56.9631 60.3515C55.2091 61.7785 52.8604 62.4623 49.2333 62.284V62.2542Z" stroke="#7631e4" stroke-width="1.06593" stroke-miterlimit="10"/>
<path d="M49.2333 62.2542C50.3631 60.2623 51.5225 58.2109 53.4252 57.0812C55.5658 55.7731 58.4794 55.7433 60.62 54.5541C59.847 56.8433 58.6875 58.9244 56.9631 60.3515C55.2091 61.7785 52.8604 62.4623 49.2333 62.284V62.2542Z" stroke="#7631e4" stroke-width="0.63956" stroke-miterlimit="10"/>
<path d="M50.036 60.9164C52.2658 60.3515 54.4361 59.3704 56.3685 58.0028C54.7631 59.7569 52.7712 61.2434 50.5414 62.3137L50.036 60.9164Z" fill="#7631e4"/>
<path d="M61.4821 35.8241C63.474 36.9241 65.5552 38.0539 67.7552 38.0242C70.2822 38.0242 72.7499 36.5079 75.2175 36.389C73.3742 34.843 71.2931 33.6835 69.0633 33.3862C66.8336 33.0889 64.4551 33.743 61.4821 35.8241Z" stroke="#7631e4" stroke-width="0.63956" stroke-miterlimit="10"/>
<path d="M61.4821 35.8241C63.474 36.9241 65.5552 38.0539 67.7552 38.0242C70.2822 38.0242 72.7499 36.5079 75.2175 36.389C73.3742 34.843 71.2931 33.6835 69.0633 33.3862C66.8336 33.0889 64.4551 33.743 61.4821 35.8241Z" stroke="#7631e4" stroke-width="0.63956" stroke-miterlimit="10"/>
<path d="M61.9281 35.7052C64.5443 35.2295 67.22 35.1998 69.8066 35.6755C67.1903 35.4971 64.6038 35.8241 62.1362 36.5674L61.9281 35.7052Z" fill="#7631e4"/>
<path d="M50.5117 83.5708C51.1658 79.6761 51.8495 75.6625 54.0793 72.8679C56.6064 69.7165 60.8578 68.4678 63.4443 65.4651C63.474 69.7462 62.8497 73.8193 60.9767 77.0004C59.1334 80.1815 55.982 82.3816 50.5117 83.5708Z" stroke="#7631e4" stroke-width="1.06593" stroke-miterlimit="10"/>
<path d="M50.5117 83.5708C51.1658 79.6761 51.8495 75.6625 54.0793 72.8679C56.6064 69.7165 60.8578 68.4678 63.4443 65.4651C63.474 69.7462 62.8497 73.8193 60.9767 77.0004C59.1334 80.1815 55.982 82.3816 50.5117 83.5708Z" stroke="#7631e4" stroke-width="1.06593" stroke-miterlimit="10"/>
<path d="M50.5712 82.441C53.6036 80.3004 56.2199 77.4761 58.2118 74.2057C56.6658 77.6842 54.4064 80.9248 51.5225 83.5708L50.5712 82.4113V82.441Z" fill="#7631e4"/>
<path d="M49.8576 93.1439C45.963 92.4303 41.9791 91.6871 39.2142 89.4276C36.0926 86.8708 34.9034 82.5897 31.9601 79.9437C36.2412 79.9734 40.3143 80.6869 43.4657 82.5897C46.617 84.4924 48.7576 87.6735 49.8576 93.1439Z" stroke="#7631e4" stroke-width="1.06593" stroke-miterlimit="10"/>
<path d="M49.8576 93.1439C45.963 92.4303 41.9791 91.6871 39.2142 89.4276C36.0926 86.8708 34.9034 82.5897 31.9601 79.9437C36.2412 79.9734 40.3143 80.6869 43.4657 82.5897C46.617 84.4924 48.7576 87.6735 49.8576 93.1439Z" stroke="#7631e4" stroke-width="1.06593" stroke-miterlimit="10"/>
<path d="M48.6982 93.0844C46.5873 90.0222 43.8224 87.3762 40.5818 85.3248C44.0305 86.9303 47.2414 89.2492 49.8576 92.1628L48.6982 93.0844Z" fill="#7631e4"/>
<path d="M49.1738 79.6464C44.2981 69.6571 36.3007 60.9461 26.1924 55.8325C31.3655 58.1217 36.0628 61.4515 40.1656 65.3759C44.2684 69.33 47.7765 73.9085 50.482 78.9626L49.1441 79.6464H49.1738Z" fill="#7631e4"/>
<path d="M52.6523 47.0621C53.0685 44.8026 53.4847 42.5134 52.8009 40.4026C51.9982 38.0241 49.7982 36.1214 48.936 33.8322C48.0441 36.0917 47.5684 38.4106 47.9846 40.6107C48.4009 42.8107 49.7685 44.8621 52.6523 47.0621Z" stroke="#7631e4" stroke-width="0.63956" stroke-miterlimit="10"/>
<path d="M52.6523 47.0621C53.0685 44.8026 53.4847 42.5134 52.8009 40.4026C51.9982 38.0241 49.7982 36.1214 48.936 33.8322C48.0441 36.0917 47.5684 38.4106 47.9846 40.6107C48.4009 42.8107 49.7685 44.8621 52.6523 47.0621Z" stroke="#7631e4" stroke-width="0.63956" stroke-miterlimit="10"/>
<path d="M52.2063 46.7946C51.136 44.6243 50.4819 42.2458 50.2738 39.8972C50.7495 42.2161 51.7009 44.4161 52.9793 46.3783L52.2063 46.8243V46.7946Z" fill="#7631e4"/>
<path d="M54.7928 43.7918C55.7442 42.6323 56.7253 41.4431 56.7848 40.0458C56.8739 38.4701 55.7739 36.7755 55.7739 35.1998C54.4658 36.2106 53.455 37.4295 53.1279 38.7971C52.8009 40.1647 53.2468 41.7404 54.7928 43.7918Z" stroke="#7631e4" stroke-width="0.63956" stroke-miterlimit="10"/>
<path d="M54.7928 43.7918C55.7442 42.6323 56.7253 41.4431 56.7848 40.0458C56.8739 38.4701 55.7739 36.7755 55.7739 35.1998C54.4658 36.2106 53.455 37.4295 53.1279 38.7971C52.8009 40.1647 53.2468 41.7404 54.7928 43.7918Z" stroke="#7631e4" stroke-width="0.63956" stroke-miterlimit="10"/>
<path d="M54.3766 43.108C54.228 41.5323 54.4361 39.9566 55.001 38.5593C54.7334 40.0458 54.8523 41.562 55.2685 42.9296L54.4064 43.108H54.3766Z" fill="#7631e4"/>
<path d="M61.9281 29.3429C61.601 27.8862 61.2443 26.3699 60.174 25.478C58.9551 24.4375 56.9631 24.2888 55.7145 23.3375C55.7145 25.0023 56.0712 26.5483 56.9631 27.6186C57.855 28.6889 59.3415 29.3132 61.9281 29.3429Z" stroke="#7631e4" stroke-width="0.63956" stroke-miterlimit="10"/>
<path d="M61.9281 29.3429C61.601 27.8862 61.2443 26.3699 60.174 25.478C58.9551 24.4375 56.9631 24.2888 55.7145 23.3375C55.7145 25.0023 56.0712 26.5483 56.9631 27.6186C57.855 28.6889 59.3415 29.3132 61.9281 29.3429Z" stroke="#7631e4" stroke-width="0.63956" stroke-miterlimit="10"/>
<path d="M61.1254 29.2537C59.7875 28.4213 58.6577 27.2916 57.8848 25.9834C58.8956 27.1132 60.174 27.9456 61.5118 28.451L61.1254 29.2537Z" fill="#7631e4"/>
<path d="M61.9281 26.9348C62.2551 25.478 62.6119 23.9618 63.6822 23.0699C64.9011 22.0293 66.893 21.8807 68.1417 20.9293C68.1417 22.5942 67.7849 24.1402 66.893 25.2104C66.0011 26.2807 64.5146 26.9051 61.9281 26.9348Z" stroke="#7631e4" stroke-width="0.63956" stroke-miterlimit="10"/>
<path d="M61.9281 26.9348C62.2551 25.478 62.6119 23.9618 63.6822 23.0699C64.9011 22.0293 66.893 21.8807 68.1417 20.9293C68.1417 22.5942 67.7849 24.1402 66.893 25.2104C66.0011 26.2807 64.5146 26.9051 61.9281 26.9348Z" stroke="#7631e4" stroke-width="0.63956" stroke-miterlimit="10"/>
<path d="M62.3443 26.0429C63.7119 25.5375 64.9605 24.705 65.9714 23.5753C65.1984 24.8834 64.0686 26.0132 62.7308 26.8456L62.3443 26.0429Z" fill="#7631e4"/>
<path d="M60.5902 19.3239C61.6308 19.1752 62.7308 18.9968 63.4146 18.3428C64.1876 17.5995 64.3957 16.2914 65.1092 15.5184C63.92 15.4589 62.82 15.6076 62.0172 16.1428C61.2145 16.6779 60.7091 17.6293 60.5902 19.3239Z" stroke="#7631e4" stroke-width="0.63956" stroke-miterlimit="10"/>
<path d="M60.5902 19.3239C61.6308 19.1752 62.7308 18.9968 63.4146 18.3428C64.1876 17.5995 64.3957 16.2914 65.1092 15.5184C63.92 15.4589 62.82 15.6076 62.0172 16.1428C61.2145 16.6779 60.7091 17.6293 60.5902 19.3239Z" stroke="#7631e4" stroke-width="0.63956" stroke-miterlimit="10"/>
<path d="M60.5902 18.6996C61.3037 17.8671 62.1659 17.213 63.1173 16.7968C62.3146 17.4509 61.72 18.2833 61.3335 19.1455L60.5902 18.6698V18.6996Z" fill="#7631e4"/>
<path d="M59.7578 17.5698C58.7767 17.1238 57.7956 16.6779 57.3199 15.8752C56.7848 14.9535 56.9334 13.6454 56.428 12.6941C57.5875 12.9616 58.5983 13.3779 59.2227 14.1211C59.847 14.8644 60.0848 15.9049 59.7578 17.5698Z" stroke="#7631e4" stroke-width="0.63956" stroke-miterlimit="10"/>
<path d="M59.7578 17.5698C58.7767 17.1238 57.7956 16.6779 57.3199 15.8752C56.7848 14.9535 56.9334 13.6454 56.428 12.6941C57.5875 12.9616 58.5983 13.3779 59.2227 14.1211C59.847 14.8644 60.0848 15.9049 59.7578 17.5698Z" stroke="#7631e4" stroke-width="0.63956" stroke-miterlimit="10"/>
<path d="M59.074 17.2131C58.955 16.2617 58.5983 15.3103 57.9739 14.4779C58.7767 15.1022 59.4605 15.9644 59.9064 16.9752L59.0442 17.2131H59.074Z" fill="#7631e4"/>
<path d="M27.8573 57.0812C27.2033 57.9136 26.5195 58.7461 25.5978 59.0137C24.5573 59.311 23.3383 58.8055 22.2978 59.0434C22.8329 58.0028 23.5167 57.1109 24.4086 56.6947C25.3005 56.2785 26.3411 56.3379 27.8573 57.0515V57.0812Z" stroke="#7631e4" stroke-width="0.63956" stroke-miterlimit="10"/>
<path d="M27.8573 57.0812C27.2033 57.9136 26.5195 58.7461 25.5978 59.0137C24.5573 59.311 23.3383 58.8055 22.2978 59.0434C22.8329 58.0028 23.5167 57.1109 24.4086 56.6947C25.3005 56.2785 26.3411 56.3379 27.8573 57.0515V57.0812Z" stroke="#7631e4" stroke-width="0.63956" stroke-miterlimit="10"/>
<path d="M27.3519 57.6461C26.4005 57.5271 25.3897 57.646 24.4086 58.0028C25.2113 57.3785 26.2221 56.9325 27.3222 56.7542V57.6461H27.3519Z" fill="#7631e4"/>
<path d="M34.1304 61.3326C33.179 62.4326 32.2276 63.5624 30.979 63.9489C29.5519 64.3948 27.9168 63.8002 26.5194 64.157C27.2924 62.7596 28.2735 61.6002 29.4925 61.0056C30.6817 60.411 32.1384 60.4407 34.1601 61.3029L34.1304 61.3326Z" stroke="#7631e4" stroke-width="0.63956" stroke-miterlimit="10"/>
<path d="M34.1304 61.3326C33.179 62.4326 32.2276 63.5624 30.979 63.9489C29.5519 64.3948 27.9168 63.8002 26.5194 64.157C27.2924 62.7596 28.2735 61.6002 29.4925 61.0056C30.6817 60.411 32.1384 60.4407 34.1601 61.3029L34.1304 61.3326Z" stroke="#7631e4" stroke-width="0.63956" stroke-miterlimit="10"/>
<path d="M33.4466 61.9867C32.1087 61.9272 30.7114 62.1651 29.4033 62.7299C30.5628 61.9272 31.9304 61.3326 33.3871 61.0948L33.4466 61.9867Z" fill="#7631e4"/>
<path d="M42.5737 69.0327C41.3845 70.7273 40.1359 72.4517 38.3818 72.8679C36.3601 73.3436 33.8628 72.0949 31.8412 72.4517C32.7628 70.2516 33.9817 68.4976 35.6466 67.6949C37.3115 66.9219 39.4521 67.1894 42.5737 69.0327Z" stroke="#7631e4" stroke-width="0.63956" stroke-miterlimit="10"/>
<path d="M42.5737 69.0327C41.3845 70.7273 40.1359 72.4517 38.3818 72.8679C36.3601 73.3436 33.8628 72.0949 31.8412 72.4517C32.7628 70.2516 33.9817 68.4976 35.6466 67.6949C37.3115 66.9219 39.4521 67.1894 42.5737 69.0327Z" stroke="#7631e4" stroke-width="0.63956" stroke-miterlimit="10"/>
<path d="M42.0683 69.5381C40.1061 69.3003 38.025 69.5381 36.152 70.3706C37.9061 69.2705 39.9872 68.7057 42.1278 68.6462V69.5381H42.0683Z" fill="#7631e4"/>
<path d="M44.4468 69.6868C45.5765 67.9624 46.7062 66.1489 46.4387 64.3651C46.1116 62.3137 44.0008 60.4704 43.5846 58.4488C41.89 60.1136 40.7008 61.9272 40.6116 63.7705C40.5224 65.6137 41.5629 67.4867 44.4468 69.7165V69.6868Z" stroke="#7631e4" stroke-width="0.63956" stroke-miterlimit="10"/>
<path d="M44.4468 69.6868C45.5765 67.9624 46.7062 66.1489 46.4387 64.3651C46.1116 62.3137 44.0008 60.4704 43.5846 58.4488C41.89 60.1136 40.7008 61.9272 40.6116 63.7705C40.5224 65.6137 41.5629 67.4867 44.4468 69.7165V69.6868Z" stroke="#7631e4" stroke-width="0.63956" stroke-miterlimit="10"/>
<path d="M43.9116 69.3895C43.1386 67.3976 42.9008 65.257 43.2575 63.2056C43.1981 65.257 43.7332 67.2786 44.7143 69.003L43.9116 69.3895Z" fill="#7631e4"/>
<path d="M35.6763 61.0947C36.0331 59.6974 36.4196 58.2407 36.0034 56.992C35.5277 55.5947 34.1304 54.5838 33.625 53.2162C32.9412 54.6433 32.5547 56.1298 32.7628 57.4379C32.9709 58.7758 33.8033 59.9353 35.7061 61.0947H35.6763Z" stroke="#7631e4" stroke-width="0.63956" stroke-miterlimit="10"/>
<path d="M35.6763 61.0947C36.0331 59.6974 36.4196 58.2407 36.0034 56.992C35.5277 55.5947 34.1304 54.5838 33.625 53.2162C32.9412 54.6433 32.5547 56.1298 32.7628 57.4379C32.9709 58.7758 33.8033 59.9353 35.7061 61.0947H35.6763Z" stroke="#7631e4" stroke-width="0.63956" stroke-miterlimit="10"/>
<path d="M35.052 60.6191C34.3979 59.2812 34.1006 57.8542 34.1006 56.4271C34.3979 57.7947 34.9925 59.0731 35.825 60.1434L35.052 60.6191Z" fill="#7631e4"/>
<path d="M28.8384 56.665C29.106 55.5055 29.4033 54.3163 28.9276 53.2757C28.3925 52.0865 26.9357 51.2541 26.3411 50.0946C25.7465 51.2838 25.4492 52.5027 25.7167 53.6028C25.9843 54.7028 26.906 55.6839 28.8384 56.665Z" stroke="#7631e4" stroke-width="0.63956" stroke-miterlimit="10"/>
<path d="M28.8384 56.665C29.106 55.5055 29.4033 54.3163 28.9276 53.2757C28.3925 52.0865 26.9357 51.2541 26.3411 50.0946C25.7465 51.2838 25.4492 52.5027 25.7167 53.6028C25.9843 54.7028 26.906 55.6839 28.8384 56.665Z" stroke="#7631e4" stroke-width="0.63956" stroke-miterlimit="10"/>
<path d="M28.2141 56.3677C27.5303 55.2677 27.0843 54.019 26.9951 52.8C27.3816 53.9892 28.0654 55.0001 28.8979 55.8325L28.1843 56.3974L28.2141 56.3677Z" fill="#7631e4"/>
<path d="M62.047 33.2079C62.7308 30.2349 61.8389 27.1132 60.9173 24.0212C60.4713 22.4753 60.0253 20.8996 59.9064 19.2644C59.7875 17.6293 60.0551 15.9644 60.8281 14.5373C60.174 16.0238 60.0253 17.659 60.2632 19.2347C60.501 20.8104 61.0362 22.2969 61.601 23.8131C62.7308 26.7861 63.9795 29.997 63.4741 33.4754L62.0173 33.2079H62.047Z" fill="#7631e4"/>
<defs>
<filter id="filter0_f_1_1685" x="0.943139" y="4.90659" width="42.6374" height="42.6374" filterUnits="userSpaceOnUse" color-interpolation-filters="sRGB">
<feFlood flood-opacity="0" result="BackgroundImageFix"/>
<feBlend mode="normal" in="SourceGraphic" in2="BackgroundImageFix" result="shape"/>
<feGaussianBlur stdDeviation="4.26374" result="effect1_foregroundBlur_1_1685"/>
</filter>
<filter id="filter1_f_1_1685" x="60.6355" y="0.642854" width="44.7692" height="44.7692" filterUnits="userSpaceOnUse" color-interpolation-filters="sRGB">
<feFlood flood-opacity="0" result="BackgroundImageFix"/>
<feBlend mode="normal" in="SourceGraphic" in2="BackgroundImageFix" result="shape"/>
<feGaussianBlur stdDeviation="4.26374" result="effect1_foregroundBlur_1_1685"/>
</filter>
</defs>
</svg>
