<svg width="55" height="98" viewBox="0 0 55 98" fill="none" xmlns="http://www.w3.org/2000/svg">
<path d="M24.0857 21.935C23.2117 21.0609 22.3803 20.1442 21.826 18.9717C21.293 17.7991 21.2504 16.3281 21.9752 15.113C22.3376 14.5161 22.9559 14.0257 23.6594 13.8339C24.3416 13.642 25.0451 13.6633 25.6846 13.7486C26.9851 13.9618 28.0937 14.3668 29.2875 14.5374C30.46 14.7506 31.6752 14.8572 32.869 14.8785C34.0629 14.9424 35.2781 14.7506 36.5785 14.8785C37.8576 15.0277 39.2646 15.6033 39.8403 16.9251C40.0534 17.5859 40.0108 18.2468 39.9042 18.8651C39.7763 19.462 39.5631 20.1442 39.0088 20.464C39.8403 19.5686 39.755 18.1189 39.3712 17.1383C38.8596 16.1789 37.6444 15.7312 36.5145 15.7099C35.3633 15.6886 34.1268 15.8805 32.869 15.8805C31.6112 15.8805 30.3534 15.7739 29.117 15.582C27.8805 15.3901 26.644 14.9638 25.5354 14.7506C24.4055 14.5161 23.297 14.6866 22.6574 15.5607C22.0178 16.4134 21.9326 17.6925 22.3163 18.7798C22.6574 19.9097 23.4035 20.9117 24.0857 21.935Z" fill="#DB5B20"/>
<path d="M23.5101 14.5374C21.6554 12.4055 19.5662 10.4442 17.3064 8.69604C19.7794 10.1457 22.1031 11.8512 24.2776 13.7699L23.5101 14.516V14.5374Z" fill="#DB5B20"/>
<path d="M25.9618 14.4734C25.0664 10.9558 23.5741 7.54485 21.5488 4.45364C23.8512 7.33167 25.706 10.6361 26.9851 14.175L25.9618 14.4947V14.4734Z" fill="#DB5B20"/>
<path d="M28.7758 13.3862C29.053 11.3609 28.989 9.25033 28.52 7.20374C29.3088 9.14374 29.7778 11.2756 29.8418 13.4501L28.7758 13.3862Z" fill="#DB5B20"/>
<path d="M32.3787 13.5354C35.0222 8.90925 39.0088 5.11453 43.635 2.72684C39.1581 5.43431 35.5552 9.44222 33.3167 14.0471L32.3787 13.5567V13.5354Z" fill="#DB5B20"/>
<path d="M34.809 14.8358C37.282 12.5974 40.2453 10.9772 43.3792 10.1244C40.3519 11.3183 37.6657 13.2156 35.5552 15.6033L34.809 14.8572V14.8358Z" fill="#DB5B20"/>
<path d="M38.689 15.518C42.8249 12.8958 47.8348 11.8726 52.5462 12.5974C47.7921 12.235 42.9954 13.642 39.286 16.4134L38.689 15.5394V15.518Z" fill="#DB5B20"/>
<path d="M16.5389 9.3143C17.2689 9.3143 17.8607 8.71298 17.8607 7.97122C17.8607 7.22946 17.2689 6.62814 16.5389 6.62814C15.8089 6.62814 15.2172 7.22946 15.2172 7.97122C15.2172 8.71298 15.8089 9.3143 16.5389 9.3143Z" fill="#DB5B20"/>
<path d="M28.2642 7.63012C28.9942 7.63012 29.586 7.02881 29.586 6.28704C29.586 5.54528 28.9942 4.94397 28.2642 4.94397C27.5342 4.94397 26.9424 5.54528 26.9424 6.28704C26.9424 7.02881 27.5342 7.63012 28.2642 7.63012Z" fill="#DB5B20"/>
<path d="M44.4451 3.36639C45.1751 3.36639 45.7668 2.76507 45.7668 2.02331C45.7668 1.28155 45.1751 0.680237 44.4451 0.680237C43.7151 0.680237 43.1233 1.28155 43.1233 2.02331C43.1233 2.76507 43.7151 3.36639 44.4451 3.36639Z" fill="#DB5B20"/>
<path d="M44.2319 11.2543C44.9619 11.2543 45.5536 10.653 45.5536 9.91122C45.5536 9.16946 44.9619 8.56815 44.2319 8.56815C43.5019 8.56815 42.9101 9.16946 42.9101 9.91122C42.9101 10.653 43.5019 11.2543 44.2319 11.2543Z" fill="#DB5B20"/>
<path d="M53.3989 14.0257C54.1289 14.0257 54.7207 13.4244 54.7207 12.6826C54.7207 11.9409 54.1289 11.3396 53.3989 11.3396C52.6689 11.3396 52.0772 11.9409 52.0772 12.6826C52.0772 13.4244 52.6689 14.0257 53.3989 14.0257Z" fill="#DB5B20"/>
<path d="M20.9093 4.94397C21.6393 4.94397 22.231 4.34265 22.231 3.60089C22.231 2.85913 21.6393 2.25781 20.9093 2.25781C20.1793 2.25781 19.5875 2.85913 19.5875 3.60089C19.5875 4.34265 20.1793 4.94397 20.9093 4.94397Z" fill="#DB5B20"/>
<path d="M22.1671 15.5393C20.8027 16.2642 19.1825 15.5607 17.9246 14.9851C16.6455 14.4095 15.2385 13.7486 14.002 14.0897C12.7655 14.4308 11.7422 15.4967 11.3798 16.7332C10.9961 17.991 11.2306 19.398 11.7849 20.6345C12.8721 23.1714 15.2385 24.9835 17.7967 26.1561C20.3763 27.3286 23.2543 27.8829 26.111 28.5011C23.2117 28.3092 20.2697 27.9681 17.4983 26.9022C14.7482 25.8363 12.1473 23.8963 10.8255 21.0609C10.2286 19.6539 9.97278 17.991 10.4844 16.4561C10.9961 14.9424 12.2326 13.6207 13.8528 13.3009C15.537 12.9811 16.944 13.8552 18.2018 14.5161C19.417 15.2622 20.7814 16.0084 22.2097 15.5393H22.1671Z" fill="#DB5B20"/>
<path d="M16.006 13.8339C15.4943 13.0024 15.4943 11.8512 16.1339 10.9558C16.88 10.167 17.882 9.84726 18.884 9.67671C19.9073 9.52748 20.8879 9.67671 21.8047 9.71935C22.7427 9.76198 23.6807 9.76198 24.5974 9.71935C25.5354 9.67671 26.4521 9.59143 27.3901 9.46352C28.3068 9.35693 29.2875 9.1011 30.3321 9.25034C31.3341 9.39957 32.4853 9.84726 32.8477 11.0198C32.9756 12.0431 32.7625 13.109 32.0589 13.7912C32.5706 13.0024 32.5919 11.9365 32.3574 11.1477C32.0803 10.4442 31.0996 10.0818 30.2682 10.0604C29.3941 10.0604 28.4987 10.2736 27.5394 10.4655C26.58 10.636 25.6207 10.7426 24.64 10.8066C23.6594 10.8492 22.7 10.8279 21.7194 10.7426C20.7387 10.6574 19.822 10.5081 18.9266 10.5081C18.0526 10.5508 17.1145 10.7853 16.475 11.3396C15.8781 11.8939 15.6649 12.9598 15.9633 13.8552L16.006 13.8339Z" fill="#DB5B20"/>
<path d="M27.6886 28.5864C26.5161 28.5011 25.237 27.9895 24.1071 27.4352C22.9559 26.8596 21.8899 26.1348 20.9093 25.3033C18.9479 23.6405 17.3064 21.6578 15.7075 19.6965L14.3218 18.0123L16.2192 19.1422C18.4363 20.464 21.1438 20.6132 23.7873 21.3167C25.1304 21.7218 26.3242 22.1695 27.6247 22.7238C28.9464 23.278 30.0123 24.5145 30.5453 25.7723L29.6499 25.9642C29.6499 24.6638 30.2895 23.406 31.1849 22.5319C32.0803 21.6365 33.3167 21.1035 34.4679 20.869C36.7917 20.3147 39.1367 20.2295 41.3539 19.6325L43.1446 19.1422L41.5884 20.1655C40.2027 21.0822 38.9449 22.2121 37.8576 23.4912C37.3246 24.1308 36.877 24.8343 36.3653 25.5378C35.875 26.22 35.2567 26.9235 34.4253 27.286L34.2761 26.9662C36.4719 25.9429 38.8809 25.7084 41.226 25.4312C43.5284 25.1541 45.98 24.8769 47.8348 23.5339L48.5383 23.0222L48.2398 23.8537C47.7495 25.218 46.7262 26.284 45.5537 27.0728C44.3811 27.8616 43.0594 28.3519 41.7163 28.7143C40.3945 29.0767 39.0515 29.3539 37.7723 29.7163L35.7044 30.2066C34.9583 30.2919 34.1482 30.1853 33.466 29.7589L34.1055 29.1407C34.5959 29.9934 35.4486 30.6756 36.3653 30.8249C37.4312 30.9954 38.5185 31.102 39.5844 31.038C41.7376 30.9101 43.9121 30.4411 46.0653 29.9295L48.7088 29.3112L46.513 30.9101C45.2339 31.8482 43.8268 32.509 42.3985 33.0846C40.9701 33.6389 39.4992 34.1079 37.9429 34.3424C36.3866 34.5983 34.7238 34.4704 33.2101 33.8521C31.6752 33.2552 30.4174 31.8695 29.9697 30.2919L30.8011 30.5264C29.6712 31.5071 28.1363 31.7842 26.7719 31.6989C25.3862 31.6137 24.0857 31.2512 22.8279 30.8249C20.3123 29.9508 17.9886 28.7143 15.5796 27.7123L14.5776 27.3073L15.6436 27.1367C16.7308 26.9662 17.7754 27.222 18.7561 27.4778C19.7367 27.7336 20.6961 28.0534 21.6554 28.224C22.6361 28.3732 23.6381 28.4798 24.64 28.5651C25.6207 28.6504 26.6866 28.629 27.6033 28.5864H27.6886ZM27.7952 28.5864C26.7079 28.8849 25.7486 28.7996 24.7253 28.8209C23.702 28.7996 22.7 28.7569 21.6767 28.629C19.6515 28.3945 17.7115 27.4139 15.8354 27.7123L15.8994 27.1367C18.3723 28.0747 20.7174 29.2473 23.1904 30.0361C24.4055 30.4198 25.6633 30.7396 26.8998 30.7822C28.1363 30.8249 29.3515 30.5264 30.2042 29.7589L30.7798 29.226L31.0356 29.9934C31.462 31.3152 32.4214 32.3598 33.7005 32.8715C34.9796 33.3831 36.4506 33.511 37.8576 33.2552C39.286 33.0207 40.7143 32.573 42.0787 32.04C43.4431 31.4857 44.7862 30.8462 45.9587 30.0147L46.4064 30.9954C44.2106 31.4644 42.0148 31.9334 39.7123 32.04C38.5611 32.104 37.3886 31.9761 36.28 31.7842C35.0009 31.5284 33.9776 30.6543 33.3807 29.5671L32.5066 27.9682L34.0416 28.9275C34.5106 29.226 35.1288 29.3326 35.7257 29.2899L37.6444 28.8849C38.9875 28.5438 40.3306 28.3093 41.631 27.9895C42.9315 27.6697 44.1893 27.2433 45.2978 26.5398C46.4064 25.8576 47.3444 24.8556 47.8134 23.6618L48.2185 23.9602C47.2165 24.7064 46.044 25.0901 44.8715 25.346C43.6989 25.6018 42.5051 25.7297 41.3326 25.8363C38.9875 26.0495 36.5998 26.2413 34.5106 27.286L34.3614 26.9662C35.8537 26.284 36.4932 24.5358 37.6018 23.2354C38.6464 21.8923 39.9042 20.6772 41.3112 19.6752L41.5671 20.2082C39.286 20.9117 36.9196 21.0822 34.7238 21.6791C33.6152 21.9563 32.6345 22.4253 31.8671 23.1715C31.0996 23.9176 30.6306 24.9409 30.6306 25.9642V28.0108L29.7352 26.1561C29.1809 24.9835 28.3921 24.0668 27.2409 23.5339C26.0897 23.0222 24.7679 22.5106 23.5741 22.1268C21.1011 21.402 18.2657 21.2741 15.8354 19.7391L16.3257 19.1849C17.882 21.1888 19.417 23.1928 21.2717 24.8769C22.1884 25.7297 23.1904 26.4972 24.2776 27.1154C25.3862 27.755 26.4948 28.1813 27.8165 28.5438L27.7952 28.5864Z" fill="#DB5B20"/>
<path d="M26.9211 14.5587C27.4967 14.0257 28.115 13.578 28.8398 13.2369C29.5646 12.8958 30.4387 12.7466 31.2914 12.8958C32.869 13.1943 34.3613 14.1323 35.0862 15.5393C33.7644 14.7505 32.464 14.1963 31.0996 13.9404C29.8205 13.6633 28.4561 14.2176 26.9211 14.5374V14.5587Z" fill="#DB5B20"/>
<path d="M32.0803 9.86858C32.5919 9.12243 33.5299 8.73869 34.4466 8.67474C35.3846 8.61078 36.3227 8.88792 37.1541 9.29298C38.817 10.0818 40.0961 11.3822 41.5884 12.0431C43.0381 12.7466 44.8715 12.6826 46.5983 13.5354C48.3677 14.3455 49.3271 16.4561 48.8154 18.1829C48.8581 16.4134 47.7708 14.8145 46.2572 14.2815C44.7436 13.7059 42.9101 13.8125 41.1407 13.0237C39.4139 12.2136 38.1987 10.8919 36.7704 10.0391C35.406 9.16506 33.5086 8.78133 32.0803 9.91122V9.86858Z" fill="#DB5B20"/>
<path d="M39.2007 16.989C39.7337 16.3281 40.7143 16.2002 41.5244 16.3495C42.3558 16.52 43.102 16.9251 43.8482 17.2022C45.3191 17.7778 46.9394 17.7138 48.6022 17.7352C50.2438 17.7352 52.0772 18.0763 53.4842 19.2701C54.1877 19.867 54.678 20.7624 54.7846 21.7004C54.8912 22.6385 54.678 23.5552 54.273 24.3653C53.3989 25.9855 51.9493 27.0301 50.4996 27.8615C49.0073 28.6716 47.4084 29.2472 45.7668 29.5457C42.4624 30.1853 39.158 29.9934 35.8963 29.6949C39.158 29.567 42.4624 29.5244 45.5963 28.7569C47.1526 28.3519 48.6662 27.8402 50.0306 27.0301C51.3737 26.2413 52.6741 25.218 53.335 23.8963C54.0385 22.6171 53.9532 20.9543 52.8446 19.9949C51.7574 18.993 50.1372 18.6732 48.5596 18.5453C46.9607 18.4174 45.2126 18.396 43.6563 17.6712C42.9101 17.3088 42.2279 16.8398 41.4605 16.6266C40.7143 16.4134 39.8189 16.4134 39.2007 16.989Z" fill="#DB5B20"/>
<path d="M30.6306 30.4411C26.111 41.1431 22.1884 53.849 22.1671 65.4677C22.1457 77.0864 25.8978 89.0675 34.1268 97.2752" stroke="#DB5B20" stroke-width="1.06593" stroke-miterlimit="10"/>
<path d="M21.6767 71.4156C21.9539 68.1539 20.6747 64.7855 18.2657 62.5684C16.2191 60.6497 13.469 59.5838 11.4438 57.6651C11.2306 59.7543 11.0387 61.8648 11.2732 63.9541C11.5077 66.0433 12.2112 68.1325 13.6396 69.6888C15.7928 72.0339 19.1611 72.78 21.6767 71.4369V71.4156Z" stroke="#DB5B20" stroke-width="1.06593" stroke-miterlimit="10"/>
<path d="M16.006 45.9824C16.7308 43.2963 16.8587 40.3969 16.1126 37.7108C15.3664 35.0246 13.7675 32.5303 11.4864 30.9528C8.6297 28.9701 4.77102 28.3306 2.7031 25.5378C4.36596 30.1 0.827061 35.3231 2.42596 39.9066C3.27871 42.3583 5.51717 44.149 7.9475 45.087C10.3778 46.0251 13.0213 46.2383 16.0273 45.9824H16.006Z" stroke="#DB5B20" stroke-width="1.06593" stroke-miterlimit="10"/>
<path d="M34.9156 66.3631C34.6172 65.2545 34.34 64.1246 34.3827 62.9947C34.4253 61.8648 34.809 60.671 35.6405 59.9035C36.5572 59.0295 37.8789 58.7523 39.1367 58.6031C40.9915 58.4112 42.8675 58.4752 44.7009 58.1767C46.5343 57.8782 48.389 57.1534 49.5616 55.7037C49.1778 58.0062 48.6022 60.3299 47.4723 62.3765C46.3425 64.4231 44.637 66.2138 42.4625 67.1092C40.2879 68.0046 37.6444 67.8554 34.937 66.3844L34.9156 66.3631Z" stroke="#DB5B20" stroke-width="1.06593" stroke-miterlimit="10"/>
<path d="M27.8165 83.6312C27.2835 80.9237 28.6266 78.0884 30.7372 76.2976C32.8477 74.5068 35.6191 73.718 38.3693 73.4622C39.8189 73.3343 41.3112 73.3556 42.7183 72.9719C44.1253 72.5881 45.2552 71.5009 46.044 70.371C45.1912 72.7161 43.9121 75.3809 42.3772 77.6193C40.8422 79.8578 38.753 81.7978 36.2161 82.7572C33.7857 83.6525 31.0783 83.5673 27.8378 83.6312H27.8165Z" stroke="#DB5B20" stroke-width="1.06593" stroke-miterlimit="10"/>
<path d="M37.6231 58.8376C37.8363 57.5158 37.1967 55.4053 36.3013 54.4033C35.406 53.4013 34.2548 52.6552 33.2528 51.7598C32.2508 50.8644 31.995 50.2675 31.1422 48.4128C31.3341 52.5486 28.4134 56.4712 28.989 60.5857C29.3941 63.549 31.7818 66.1073 34.7024 66.7468" stroke="#DB5B20" stroke-width="1.06593" stroke-miterlimit="10"/>
<path d="M22.8493 56.6204C21.3356 52.6765 18.9266 49.0523 15.878 46.1317" stroke="#DB5B20" stroke-width="1.06593" stroke-miterlimit="10"/>
<path d="M27.5394 88.2574C26.4095 84.5266 26.9851 80.4334 28.4134 76.8093C29.8418 73.1851 32.3148 69.2624 34.5532 66.0646" stroke="#DB5B20" stroke-width="1.06593" stroke-miterlimit="10"/>
<path d="M15.004 46.0677C12.8934 41.0152 10.058 36.2185 6.5831 31.9121C10.3139 36.0053 13.4904 40.6314 15.9633 45.62L15.004 46.0677Z" fill="#DB5B20"/>
<path d="M20.9732 71.373C18.2444 69.0492 16.006 66.2139 14.4071 63.08C16.3257 66.022 18.7987 68.5802 21.6341 70.5416L20.9732 71.3943V71.373Z" fill="#DB5B20"/>
<path d="M34.1482 61.14C32.7411 59.1147 31.9523 56.7483 31.8457 54.4033C32.3148 56.7057 33.4233 58.8376 34.9796 60.4791L34.1482 61.14Z" fill="#DB5B20"/>
<path d="M34.9796 65.2758C38.5824 64.9347 42.1213 63.1226 44.5943 60.2659C42.4198 63.3358 38.9875 65.5956 35.1501 66.3204L35.0009 65.2758H34.9796Z" fill="#DB5B20"/>
<path d="M27.582 83.0556C28.6906 80.8385 30.5666 79.1756 32.5919 77.9604C34.6172 76.7453 36.8343 75.9352 39.0088 75.1251C36.8983 76.0844 34.7664 77.0651 32.869 78.4081C30.993 79.7299 29.3728 81.4567 28.5414 83.5033L27.582 83.0556Z" fill="#DB5B20"/>
</svg>
