<svg width="44" height="98" viewBox="0 0 44 98" fill="none" xmlns="http://www.w3.org/2000/svg">
<path d="M22.0339 18.9112C22.1075 15.7958 20.4885 13.0974 19.0657 10.4236C18.3298 9.09899 17.6675 7.67622 17.0051 6.35158C16.6617 5.68926 16.2938 5.05147 15.8768 4.48727C15.6805 4.21743 15.4107 3.92306 15.1899 3.72682C14.9201 3.50605 14.871 3.57964 14.9446 3.55511C14.8955 3.55511 14.7729 3.84947 14.7484 4.16837C14.7238 4.48726 14.7484 4.80616 14.7974 5.14958C14.9201 5.81191 15.1899 6.49876 15.5088 7.18561C16.1221 8.58384 16.7599 9.98208 17.3486 11.3803C17.9618 12.7786 18.5015 14.2258 19.2129 15.5505C19.728 16.9978 20.6847 18.1998 22.0829 18.9112H22.0339ZM22.0339 18.9112C20.5375 18.4451 19.3601 17.2186 18.6487 15.8449C17.8147 14.5202 17.1769 13.122 16.4655 11.7728C15.7541 10.4236 15.1163 9.02539 14.4295 7.65169C14.086 6.94031 13.7671 6.20439 13.5954 5.37036C13.5218 4.95334 13.4728 4.5118 13.5218 4.04572C13.5954 3.6287 13.5954 3.08903 14.1596 2.57389C14.454 2.32859 14.9201 2.255 15.239 2.35312C15.5579 2.45124 15.7786 2.62295 15.9749 2.77014C16.3183 3.08903 16.5636 3.38339 16.8089 3.72682C17.2995 4.38914 17.692 5.07599 18.0354 5.78738L19.9243 10.0066C20.513 11.4294 21.2489 12.754 21.6905 14.2749C22.1075 15.7713 22.3283 17.3657 22.0584 18.8866L22.0339 18.9112Z" fill="#DB5B20"/>
<path d="M21.3961 19.7207C19.5318 17.145 17.4712 14.741 15.1899 12.5823C14.037 11.5275 12.8595 10.4727 11.633 9.51602C11.0197 9.02542 10.3819 8.55934 9.74414 8.11779C9.42524 7.89702 9.08182 7.65171 8.88558 7.57812C8.68933 7.48 8.54214 7.62718 8.5912 7.57812C8.56667 7.43094 8.64027 7.84796 8.81198 8.19138C8.95916 8.53481 9.13088 8.8537 9.32713 9.14807C9.71961 9.76133 10.2102 10.3501 10.7499 10.9143C11.8292 12.0181 13.0557 13.0729 14.1596 14.2013L17.5448 17.562C18.109 18.1262 18.6242 18.7395 19.2374 19.2055C19.8507 19.6716 20.6357 19.8433 21.4206 19.6962L21.3961 19.7207ZM21.3961 19.7207C20.6602 19.9905 19.7525 19.9415 19.0166 19.4999C18.3053 19.0584 17.7411 18.5187 17.1033 18.0281L13.4728 14.9372C12.2708 13.907 11.0933 12.8767 9.91585 11.7238C9.35165 11.135 8.78746 10.5218 8.32138 9.83492C8.07607 9.4915 7.85529 9.12354 7.68358 8.73105C7.58546 8.53481 7.51187 8.36309 7.43828 8.11779C7.36469 7.89702 7.26656 7.48 7.46281 7.08751C7.87982 6.32707 8.73839 6.30254 9.25353 6.49878C9.7932 6.71956 10.0876 6.98939 10.4065 7.21016C11.0688 7.67624 11.682 8.16685 12.3198 8.68199C13.5464 9.71227 14.7729 10.7671 15.8522 11.9445C18.0354 14.2749 19.9488 16.8997 21.3961 19.7452V19.7207Z" fill="#DB5B20"/>
<path d="M20.7583 21.1434C19.6054 19.966 18.3053 19.0093 16.907 18.1262C15.5333 17.2431 14.1596 16.3355 12.7859 15.4769C11.3877 14.6429 10.014 13.7843 8.56668 13.0975C7.83077 12.754 7.09485 12.4351 6.35894 12.1653C5.99098 12.0427 5.57397 11.8709 5.30414 11.8464C4.96071 11.8219 4.98523 11.8955 5.00976 11.8464C4.91164 12.0181 5.5249 12.8522 6.01551 13.3673C6.55518 13.9315 7.14391 14.4466 7.78171 14.9127C9.05729 15.8694 10.4801 16.7034 11.8538 17.562C13.252 18.396 14.6748 19.181 16.1466 19.8924C17.5693 20.6528 19.1393 21.1925 20.7828 21.0944L20.7583 21.1434ZM20.7583 21.1434C19.1393 21.5359 17.3976 21.0699 15.8767 20.4811C14.3313 19.8679 12.835 19.181 11.3631 18.4206C9.89132 17.6601 8.46856 16.8016 7.09486 15.8449C6.408 15.3543 5.74568 14.8146 5.13241 14.2013C4.83805 13.8824 4.54369 13.5635 4.27385 13.2201C4.02855 12.8276 3.63606 12.4106 3.75872 11.6011C3.83231 11.2086 4.1512 10.8652 4.51916 10.718C4.88711 10.5954 5.18148 10.6199 5.45131 10.6689C5.99098 10.7671 6.30988 10.9388 6.7269 11.086C7.51187 11.3803 8.27231 11.7238 9.03275 12.1162C10.5291 12.8767 11.9519 13.7353 13.3011 14.7165C15.9013 16.6789 18.7959 18.4696 20.7583 21.168V21.1434Z" fill="#DB5B20"/>
<path d="M19.9979 22.6888C17.2014 21.1189 14.2087 20.0396 11.1669 19.2301L6.55518 18.0771C5.77021 17.9054 4.98523 17.6846 4.24932 17.562C3.88136 17.4884 3.51341 17.4639 3.14545 17.4393C2.94921 17.4393 2.80202 17.4393 2.82655 17.4393C2.90015 17.4148 2.92468 17.2922 2.92468 17.3412C2.87562 17.3412 3.07186 17.5865 3.41528 17.8318C3.70965 18.0526 4.02855 18.2734 4.34744 18.4696C4.98523 18.8621 5.67208 19.2055 6.408 19.5244C7.83076 20.1622 9.37618 20.5792 10.848 21.168C13.8162 22.2228 16.858 23.621 19.9979 22.6888ZM19.9979 22.6888C18.5506 23.4002 16.8334 23.4738 15.2144 23.253C13.5954 23.0077 12.0745 22.4926 10.5291 22.0756C8.98369 21.634 7.46281 21.1925 5.94192 20.5792C5.18148 20.2603 4.42103 19.9169 3.70965 19.4999C3.3417 19.2791 2.99827 19.0583 2.65484 18.7885C2.38501 18.5432 1.82081 18.2979 1.69816 17.4639C1.6491 17.1204 1.84534 16.5562 2.31142 16.36C2.72844 16.1883 2.97374 16.2374 3.16998 16.2374C3.61153 16.2374 4.02855 16.3109 4.44556 16.4091C5.2796 16.5808 6.01551 16.8015 6.80048 16.9978C8.3459 17.4148 9.89132 17.8073 11.4122 18.347C14.454 19.3772 17.4712 20.7019 19.9733 22.7134L19.9979 22.6888Z" fill="#DB5B20"/>
<path d="M19.1393 24.1852C15.8767 23.4248 12.9086 23.0568 10.1121 22.4681C8.71386 22.1737 7.14391 21.953 5.69662 21.8794C4.96071 21.8548 4.22479 21.8548 3.48888 21.9039C3.12092 21.9284 2.77749 21.9775 2.40954 22.0511C2.23782 22.0756 2.01705 22.1247 1.96799 22.1492C1.84534 22.2228 2.04158 22.1492 2.01705 21.9284C1.8944 21.7077 2.2133 22.1001 2.48313 22.1737C2.7775 22.2964 3.12092 22.419 3.48888 22.5417C4.20026 22.7625 4.93617 22.9832 5.64756 23.155C7.09485 23.5474 8.56668 23.8173 10.063 24.0381C13.0312 24.4551 16.073 24.4796 19.1393 24.1607V24.1852ZM19.1393 24.1852C16.1956 25.0193 13.0557 25.24 9.96491 25.0193C8.41949 24.9211 6.87408 24.6513 5.37772 24.3079C4.61728 24.1362 3.88137 23.9154 3.14545 23.6946C2.7775 23.5965 2.40954 23.4738 1.99252 23.3021C1.79628 23.204 1.5755 23.1059 1.37926 22.9587C1.18302 22.8115 0.888652 22.6153 0.81506 22.0756C0.765999 21.4623 1.30567 21.0944 1.55097 21.0453C1.84534 20.9472 2.01705 20.9472 2.21329 20.8982C2.60578 20.8246 2.99827 20.7755 3.41528 20.751C4.20026 20.7019 5.00976 20.6774 5.79473 20.751C7.36468 20.9227 8.86104 21.1189 10.4065 21.585C13.5464 22.4436 16.49 23.5229 19.1638 24.2098L19.1393 24.1852Z" fill="#DB5B20"/>
<path d="M19.1884 24.8475C15.9503 25.2155 12.9086 25.657 9.98945 26.0495C8.51762 26.2703 7.09485 26.4175 5.62302 26.5647C4.91164 26.6628 4.12667 26.6873 3.48888 26.81C3.16998 26.8836 2.85109 26.9817 2.65484 27.1289C2.55672 27.1779 2.53219 27.2515 2.55672 27.2025C2.55672 27.1534 2.53219 27.1043 2.58125 27.1779C3.29263 27.8402 5.08336 27.8893 6.45706 27.8893C7.92888 27.8893 9.42524 27.7421 10.9216 27.5704C13.7917 27.1289 17.1523 27.3006 19.1884 24.8475ZM19.1884 24.8475C18.4279 26.1967 16.9806 27.0553 15.5333 27.5459C14.0615 27.9629 12.5406 28.1837 11.0442 28.5026C9.54789 28.8215 8.02701 28.9686 6.48159 29.0422C5.69662 29.0668 4.91164 29.0422 4.12667 28.9441C3.3417 28.8215 2.48313 28.7479 1.6491 27.9629C1.45285 27.7667 1.23208 27.3251 1.35473 26.8836C1.47738 26.4665 1.74722 26.2458 1.96799 26.0986C2.40954 25.8287 2.82656 25.7061 3.24357 25.6325C4.07761 25.4853 4.81352 25.4608 5.5985 25.4117C7.16845 25.3136 8.73839 25.2155 10.2838 25.1664L19.1638 24.8475H19.1884Z" fill="#DB5B20"/>
<path d="M19.3846 26.0986C15.9749 27.0798 12.9331 28.3063 9.98945 29.2385C8.54215 29.7536 6.87408 30.1216 5.47585 30.8084C4.76446 31.1519 4.10214 31.5444 3.53794 32.035C3.24358 32.2803 2.99827 32.5501 2.77749 32.8445C2.53219 33.1388 2.38501 33.4823 2.43407 33.4332C2.38501 33.3841 2.50766 33.5559 2.72844 33.5068C2.97374 33.5068 3.39076 33.3106 3.75871 33.1634L6.04005 32.3048C7.56093 31.7161 9.05729 31.0538 10.5536 30.416C13.5464 29.1159 16.4655 27.6685 19.3601 26.0986H19.3846ZM19.3846 26.0986C16.7598 28.1101 13.9143 29.7782 10.9952 31.2745C9.52337 32.035 8.02701 32.6973 6.50612 33.3351L4.20026 34.2672C3.80777 34.4144 3.48888 34.5861 2.90015 34.6843C2.36048 34.7824 1.47738 34.5861 1.23208 33.6785C1.13396 32.7954 1.62457 32.4275 1.84534 32.084C2.1397 31.7406 2.4586 31.4217 2.77749 31.1273C3.46435 30.5631 4.22479 30.1216 5.00976 29.7782C6.60424 29.0913 8.14966 28.7234 9.84226 28.3063C13.2029 27.4723 16.49 26.8836 19.3846 26.0986Z" fill="#DB5B20"/>
<path d="M23.751 18.0526C23.2113 15.0599 23.334 11.9936 23.2359 9.00087C23.1623 7.50452 23.1132 6.00816 22.8679 4.56086C22.7453 3.82495 22.6226 3.11357 22.4264 2.40218C22.3283 2.03423 22.2301 1.6908 22.1075 1.49456C21.9603 1.29831 21.9603 1.34738 21.8867 1.34738C21.6169 1.34738 21.4697 2.03423 21.3716 2.79467C21.2734 3.53058 21.1998 4.24196 21.1753 4.97788C21.1017 6.4497 21.1998 7.92153 21.347 9.41789C21.6659 12.3861 22.5245 15.2561 23.7755 18.0281L23.751 18.0526ZM23.751 18.0526C22.0584 15.5505 20.9055 12.6068 20.3903 9.5896C20.096 8.09325 19.9733 6.54782 19.9979 4.97788C19.9979 4.1929 20.0714 3.43246 20.1696 2.64749C20.2186 2.255 20.2432 1.91158 20.3903 1.4455C20.513 1.00395 20.8564 0.439752 21.4452 0.218978C22.0829 -0.0753869 22.9415 0.415218 23.1377 0.881296C23.4076 1.34737 23.4812 1.73986 23.5793 2.10782C23.7755 2.86826 23.9227 3.6287 24.0208 4.38915C24.1926 5.93457 24.2661 7.45545 24.1926 8.97634C24.0944 12.0181 23.7265 15.0108 23.7755 18.0281L23.751 18.0526Z" fill="#DB5B20"/>
<path d="M20.6111 5.73833C19.6544 4.46274 18.9921 3.1381 17.9618 2.30406C17.7165 2.05876 17.4712 2.0097 17.5693 2.0097C17.5939 1.88705 17.4222 2.15688 17.324 2.52484C17.1278 3.21169 17.0051 3.92307 16.8825 4.73257C16.5145 4.02119 16.3673 3.21169 16.3919 2.40219C16.3919 2.05876 16.3428 1.42097 17.1033 0.95489C17.9618 0.660525 18.4279 1.17566 18.7468 1.39644C19.3846 1.96064 19.8752 2.69655 20.145 3.43246C20.4394 4.19291 20.5866 4.95335 20.6111 5.73833Z" fill="#DB5B20"/>
<path d="M14.4785 6.54786C13.7181 6.10631 13.0312 5.6893 12.2953 5.32134C11.5594 4.97791 10.7254 4.53636 10.6272 4.8062C10.2593 5.0515 10.0876 5.78742 10.2102 6.47427C10.3329 7.18565 10.7499 7.92156 11.0933 8.73107C10.3819 8.24046 9.69507 7.65173 9.30259 6.74411C8.93463 5.88554 8.88557 4.60996 9.89132 3.80045C10.4555 3.3589 11.3141 3.50609 11.682 3.75139C12.0991 3.99669 12.4425 4.21747 12.7859 4.51184C13.4728 5.07604 14.0615 5.73836 14.454 6.52333L14.4785 6.54786Z" fill="#DB5B20"/>
<path d="M9.05729 9.61415C8.46856 9.51603 7.95342 9.41791 7.46281 9.34432C6.9722 9.29526 6.38347 9.22166 6.23629 9.34432C6.18723 9.36885 6.23629 9.27073 6.18723 9.41791C6.13817 9.54056 6.21176 9.78587 6.23629 10.0312C6.33441 10.5218 6.4816 10.9879 6.70238 11.5521C6.13818 11.3558 5.67209 10.9143 5.35319 10.3991C5.18148 10.1293 5.05883 9.85945 5.00977 9.44244C4.93618 9.02542 5.27961 8.38763 5.77022 8.21591C6.67784 7.97061 7.19298 8.24045 7.73265 8.48575C8.27232 8.75559 8.7384 9.12354 9.05729 9.63868V9.61415Z" fill="#DB5B20"/>
<path d="M4.93618 17.0714C4.39651 17.1204 3.83231 17.0223 3.31717 16.6544C2.77751 16.2864 2.43408 15.526 2.72844 14.741C3.14546 13.8579 3.95496 13.7843 4.42104 13.7598C4.96071 13.7107 5.67209 13.8334 5.96646 14.373C5.42679 14.2994 5.05883 14.4957 4.64182 14.6674C4.20027 14.8882 3.85684 15.0599 3.88137 15.1825C3.80778 15.3297 3.83231 15.6731 4.00402 15.992C4.20027 16.3355 4.59276 16.6544 4.96071 17.0714H4.93618Z" fill="#DB5B20"/>
<path d="M3.73419 18.8866C3.43982 19.2055 3.14546 19.3772 2.94921 19.5244C2.80203 19.7452 2.75297 19.8433 2.7775 19.9169C2.7775 20.0396 2.82656 20.3094 2.87562 20.5547C2.94921 20.8245 3.07186 21.0944 3.31717 21.4378C2.90015 21.5605 2.45861 21.4133 2.13971 21.1189C1.79628 20.8245 1.57551 20.4321 1.57551 19.8679C1.60004 19.2546 2.09065 18.764 2.5322 18.6904C2.97374 18.6413 3.36623 18.6904 3.73419 18.8866Z" fill="#DB5B20"/>
<path d="M3.97949 23.3267C3.61154 23.621 3.21905 23.8173 3.0228 24.0626C2.82656 24.2834 2.70391 24.5287 2.72844 24.6268C2.70391 24.7249 2.80203 24.9947 2.99827 25.2891C3.19452 25.5835 3.43982 25.8778 3.75872 26.2213C3.29264 26.3685 2.80203 26.2458 2.36048 26.0005C1.94346 25.7797 1.50192 25.3382 1.47739 24.5777C1.55098 23.8418 2.04158 23.3757 2.55672 23.2286C3.07186 23.0814 3.53795 23.1304 3.95496 23.3267H3.97949Z" fill="#DB5B20"/>
<path d="M3.78324 28.4781C3.46435 28.6007 3.14545 28.7479 2.87562 28.9441C2.60578 29.1404 2.38501 29.4347 2.31142 29.7782C2.26236 30.0725 2.36048 30.3914 2.50766 30.6367C2.65485 30.882 2.90015 31.1028 3.12092 31.2991" stroke="#DB5B20" stroke-width="1.06593" stroke-miterlimit="10"/>
<path d="M23.5548 17.0714C24.0209 18.1017 24.3888 19.2056 24.5115 20.383C24.6341 21.5114 24.6341 22.7625 23.8982 23.989C22.966 25.0683 22.0339 25.5344 21.0036 26.0986C19.9733 26.5892 18.9185 27.1289 17.7411 27.1534C18.7468 26.6383 19.6054 25.9514 20.513 25.3136C21.347 24.6513 22.3773 23.9645 22.8925 23.3267C23.3831 22.6153 23.4812 21.5114 23.5793 20.4321C23.6774 19.3773 23.5793 18.2489 23.5793 17.0959L23.5548 17.0714Z" fill="#DB5B20"/>
<path d="M24.0944 22.9832C26.3267 29.1158 26.8419 35.9107 25.6644 42.3868C24.4379 48.9609 20.6111 54.4557 18.1581 60.4166C12.9576 72.2648 13.4482 86.0509 18.9431 97.7765L18.8449 97.8255C15.3861 92.2817 13.4973 85.7565 13.2765 79.1579C13.0067 72.5592 14.5521 65.9114 17.5448 60.0977C19.0166 57.1786 20.6602 54.3821 21.9848 51.414C23.3831 48.4703 24.2416 45.3549 24.6586 42.1905C25.5908 35.8617 25.3946 29.3366 23.9718 23.0077H24.0944V22.9832Z" fill="#DB5B20"/>
<path d="M18.6242 58.4052C18.9431 56.271 19.0657 53.9651 18.8204 51.8065C18.6242 49.5987 18.06 47.4646 17.3976 45.355C16.7108 43.2453 15.8768 41.1603 14.7974 39.1978C13.7426 37.2109 12.5651 35.2239 12.0991 32.9426L12.6633 33.0407C10.7254 37.3335 10.2593 42.1905 11.3386 46.7041C11.9028 48.9609 12.8105 51.1196 14.0615 53.1066C15.2635 55.0935 16.9561 56.8597 18.6242 58.4542V58.4052ZM18.6732 58.5278C16.5391 57.2277 14.7484 55.6087 13.252 53.6217C11.7802 51.6593 10.7008 49.378 10.1121 46.974C8.88558 42.166 9.64602 36.9165 12.1236 32.7218L12.5897 31.9123L12.6878 32.8199C12.9086 35.0031 14.037 37.0391 15.1899 38.9525C16.3674 40.8659 17.5694 42.8529 18.3789 44.987C19.2129 47.1212 19.6544 49.427 19.7526 51.7329C19.8016 54.0387 19.5563 56.3201 18.6487 58.5278H18.6732Z" fill="#DB5B20"/>
<path d="M14.0124 78.9126C13.3256 75.601 12.1481 72.4857 10.5536 69.542C9.7932 68.0702 8.98369 66.5983 8.14966 65.1265C7.31562 63.6547 6.408 62.2319 5.42678 60.8582L5.7702 60.7846C5.25507 63.1641 4.93617 65.5926 4.88711 67.9721C4.83805 70.3515 5.08335 72.7555 5.94192 74.8896C7.53639 79.2806 12.0009 82.077 14.6012 86.2717L14.503 86.3453C12.8595 84.5301 10.9461 83.0828 9.15541 81.3902C7.34015 79.7467 5.64755 77.7597 4.7154 75.3557C3.85683 72.9517 3.66059 70.376 3.90589 67.8985C4.1512 65.4209 4.83804 63.066 5.35318 60.6865L5.45131 60.245L5.69662 60.6129C6.67783 62.0112 7.68357 63.3603 8.68932 64.7095C9.7196 66.0587 10.6518 67.506 11.4613 69.0269C12.9822 72.0686 14.1596 75.4538 14.0615 78.8881H13.9388L14.0124 78.9126Z" fill="#DB5B20"/>
<path d="M14.3313 70.9647C16.9561 70.2533 19.4337 69.1985 21.7395 67.8493C24.0208 66.4756 26.0814 64.783 27.9702 62.8697C29.8591 60.9563 31.5026 58.7731 32.9009 56.4672C34.2991 54.1368 35.5256 51.7083 36.9239 49.3534L37.439 50.0403C28.9024 52.8122 21.4452 58.2334 15.8032 65.2982L15.705 65.2246C20.1941 57.2522 28.2891 51.3894 37.1937 49.1572L38.3957 48.8628L37.6843 49.844C36.1143 52.0517 34.6671 54.3576 33.2443 56.6635C31.8215 58.9693 30.3988 61.3242 28.6571 63.4829C26.9154 65.6416 24.6832 67.3833 22.2301 68.6834C19.7771 69.9835 17.1033 70.8175 14.3559 71.0874V70.9647H14.3313Z" fill="#DB5B20"/>
<path d="M25.7625 38.4374C25.6153 35.7391 26.0323 33.2124 26.7928 30.6858C27.5778 28.1837 28.7062 25.8042 30.227 23.6701C31.7725 21.5605 33.6613 19.7452 35.6483 18.0772C37.6598 16.4336 39.7939 14.9618 42.0998 13.7843L43.3999 13.122L42.5168 14.324C41.0695 16.311 40.0392 18.5678 39.1316 20.8736C38.224 23.204 37.4635 25.5835 36.4087 27.9139C34.4463 32.5746 30.8648 36.9901 25.787 38.4374H25.7625ZM25.8361 38.3393C27.9948 37.2845 30.0063 35.6409 31.5272 33.7521C33.1216 31.8633 34.2255 29.68 35.2312 27.4232C36.1879 25.1419 37.0465 22.787 38.0522 20.4566C39.0335 18.1262 40.2845 15.8204 41.9771 13.907L42.3941 14.4466C40.0392 15.4033 37.8315 16.728 35.9181 18.4206C33.9802 20.0887 32.4103 22.1247 31.0611 24.2588C29.7119 26.393 28.5344 28.6252 27.7004 31.0047C26.8173 33.3596 26.2531 35.9108 25.8606 38.3638L25.8361 38.3393Z" fill="#DB5B20"/>
<path d="M17.8392 58.3806C16.858 52.1499 13.3501 46.3117 12.8595 39.8356C13.7671 46.2871 17.5694 51.7084 19.0412 58.1599L17.8392 58.3806Z" fill="#DB5B20"/>
<path d="M25.321 37.1127C29.2458 32.0595 32.9254 26.7854 36.3106 21.3152C33.2688 26.9817 29.9572 32.501 26.3267 37.8487L25.3455 37.1373L25.321 37.1127Z" fill="#DB5B20"/>
<path d="M13.9879 70.2779C18.1581 65.0529 23.1132 60.5148 28.6326 56.8843C23.3585 60.8582 18.7223 65.6662 14.9691 71.0138L13.9879 70.2779Z" fill="#DB5B20"/>
<path d="M13.5709 82.813L5.91739 66.1077L14.6502 82.2242L13.5709 82.813Z" fill="#DB5B20"/>
</svg>
