<svg width="77" height="98" viewBox="0 0 77 98" fill="none" xmlns="http://www.w3.org/2000/svg">
<path d="M63.4132 12.9569C64.0375 11.4406 64.8997 9.98385 66.2078 8.8541C67.4862 7.69463 69.2403 7.01084 70.9944 7.0703C72.7187 7.0703 74.6215 7.87301 75.4242 9.50817C75.8404 10.2514 75.9296 11.2622 75.6323 12.065C75.335 12.8677 75.7215 13.3434 76.2269 14.0569C77.4161 15.7218 76.3755 18.0704 74.8296 19.0218C73.2836 20.0921 71.3214 20.3299 69.5971 19.9434C67.8727 19.5272 66.3267 18.784 65.0186 17.5948C63.7997 16.3758 62.8483 14.6515 63.3537 12.9866L63.4132 12.9569ZM63.5618 13.0163C63.0862 14.592 64.4537 16.0785 65.7024 16.792C67.0403 17.5056 68.5268 18.1002 69.9836 18.3677C71.4106 18.6353 72.9268 18.5461 74.1458 17.8326C75.3052 17.1488 76.1972 15.7218 75.6026 14.4434C75.4539 14.1163 75.1863 13.7298 75.0674 13.2542C74.9485 12.7785 75.0674 12.2731 75.1863 11.8866C75.4836 11.1433 75.4539 10.4001 75.0377 9.71628C74.235 8.34869 72.5106 8.11084 71.0538 8.28922C69.5673 8.43787 68.1403 8.88383 66.743 9.59736C65.3754 10.3109 64.1267 11.4704 63.5321 13.0163H63.5618Z" fill="#DB5B20"/>
<path d="M73.0755 19.2002C73.7296 19.3191 73.908 19.9137 74.1161 20.3597C74.3242 20.9543 74.0566 21.6678 73.8188 22.0543C73.6701 22.4111 73.3431 22.7976 73.3134 23.1246C73.2242 23.4814 73.2242 24.0462 72.8377 24.6111C72.0052 25.6814 70.816 25.7111 69.8647 25.6517C68.8836 25.5922 67.9619 25.4138 67.0106 25.2355C66.0592 25.0274 65.1376 24.7895 64.2159 24.076C63.3538 23.3624 62.7889 22.2922 62.6402 21.2516C62.3727 19.1705 62.9375 17.2975 63.6511 15.5434H63.7997C63.9781 17.4759 63.8294 19.3489 64.1862 20.9841C64.3646 21.7868 64.6321 22.5003 65.1376 23.0354C65.6727 23.5408 66.5052 24.0165 67.2781 24.4625C68.0809 24.8787 68.9728 25.2057 69.8647 25.176C70.7268 25.176 71.589 24.5517 71.7674 24.0165C71.8566 23.7787 71.8863 23.3625 72.035 22.8273C72.1836 22.203 72.5701 21.9057 72.8674 21.4597C73.135 21.103 73.3728 20.8949 73.3431 20.5381C73.3431 20.1516 73.3431 19.6165 73.0755 19.3786V19.23V19.2002Z" fill="#DB5B20"/>
<path d="M73.5512 8.05138C73.7296 7.69461 73.6404 7.21894 73.5512 6.83245C73.4917 6.41623 73.2539 6.2973 72.9566 6.02972C72.3323 5.6135 71.1728 4.75133 70.9647 3.91889C70.7566 3.26482 70.0133 2.72969 69.1214 2.78915C68.2592 2.84861 67.4862 3.41348 66.8619 4.03781C66.2673 4.75133 65.7024 5.46486 65.0781 6.0892C64.4538 6.71353 63.8294 7.39731 63.4132 8.05138C62.4321 9.27031 62.7294 10.9649 63.4132 12.7487L63.2943 12.8379C62.5808 12.1839 61.9564 11.4109 61.6591 10.4001C61.3321 9.38924 61.5105 8.11084 62.0754 7.21894C62.6105 6.2973 63.3538 5.70269 64.097 5.07836C64.8403 4.45403 65.5835 3.85942 66.3862 3.38374C67.2187 2.90806 68.1106 2.46211 69.0917 2.31345C70.0133 2.13507 71.3214 2.254 72.035 3.29456C72.5404 4.21619 73.0161 4.39458 73.7593 5.22702C74.1161 5.58378 74.4431 6.29731 74.3539 6.83245C74.2647 7.33786 74.1458 7.90273 73.6404 8.20004L73.5512 8.08111V8.05138Z" fill="#DB5B20"/>
<path d="M67.9916 2.49187C67.9024 2.16484 67.5457 1.95671 67.2781 1.77833C66.9511 1.57022 66.8024 1.59996 66.4457 1.62969C65.7619 1.77835 64.5727 1.59995 63.9483 1.24319C63.2645 0.916156 62.6105 0.529679 61.9564 0.886441C61.3321 1.21347 60.9456 1.98646 60.7969 2.69998C60.5888 4.15676 60.8861 5.64327 61.1537 7.15951C61.3618 8.58655 61.897 9.95414 62.6997 11.4109L62.6105 11.5298C61.0942 10.7569 60.024 9.21089 59.6077 7.48654C59.3402 5.88111 59.1915 4.03783 60.0537 2.46214C60.4996 1.68915 61.005 1.03508 61.7186 0.499934C62.4618 -0.0649388 63.5619 -0.064937 64.3348 0.0837138C65.2267 0.291825 65.6132 0.440474 66.5349 0.499934C66.9808 0.499934 67.6349 0.856696 67.843 1.24319C68.0808 1.59995 68.3781 2.07565 68.17 2.58106H68.0214L67.9916 2.49187Z" fill="#DB5B20"/>
<path d="M63.324 17.9218C62.2834 17.9515 61.2132 17.7732 60.2024 17.2678C59.1915 16.7921 58.3293 15.8704 57.9429 14.711C57.5861 13.492 57.8537 12.2434 58.4483 11.292C59.0429 10.3406 59.905 9.65683 60.8564 9.18115C60.3213 10.1028 59.7861 10.9352 59.4888 11.7974C59.2212 12.6596 59.1023 13.5218 59.3699 14.265C59.578 15.038 60.1726 15.7218 60.8564 16.3164C61.5699 16.911 62.4618 17.3867 63.3537 17.9218H63.324Z" fill="#DB5B20"/>
<path d="M63.5321 13.0461C65.6727 13.7298 68.0214 13.9082 70.3403 13.6109C68.1403 14.4136 65.7024 14.7407 63.2646 14.5028L63.5619 13.0461H63.5321Z" fill="#DB5B20"/>
<path d="M62.0456 11.0839C62.8484 10.4893 63.6808 9.41901 64.5133 8.5271C65.3754 7.66493 66.3268 6.62438 67.6052 6.53519C66.416 6.89195 65.7322 8.02168 65.0781 9.00277C64.3943 10.0433 63.9484 11.0839 62.997 12.2136L62.0159 11.0839H62.0456Z" fill="#DB5B20"/>
<path d="M60.7375 8.43795C61.3024 6.80279 62.1646 5.31629 63.2348 4.09735C62.5808 5.58386 62.224 7.15954 62.1943 8.70551L60.7375 8.43795Z" fill="#DB5B20"/>
<path d="M63.2646 17.4461C64.2754 17.4461 64.3646 17.9813 64.543 18.1597L64.9889 18.8137C65.2565 19.2002 65.5835 19.4381 66.0592 19.6759C66.9808 20.1813 67.9619 20.5678 68.943 21.0137C67.9025 20.8056 66.8322 20.657 65.7619 20.3597C65.2565 20.2408 64.6024 20.0029 64.1565 19.557L63.5321 18.9921C63.3835 18.784 63.0862 18.8137 63.5321 18.9029L63.2348 17.4461H63.2646Z" fill="#DB5B20"/>
<path d="M13.6152 17.4164C12.3368 18.4272 10.8503 19.2597 9.12595 19.5867C7.43133 19.9435 5.58807 19.6759 4.07183 18.7543C2.58532 17.8624 1.30692 16.2272 1.42584 14.4434C1.42584 13.5812 1.87179 12.6596 2.49612 12.1244C3.17992 11.5893 3.061 10.965 2.97181 10.1028C2.79343 8.0514 4.84481 6.5649 6.65835 6.50544C8.53135 6.35679 10.3449 7.12977 11.653 8.31898C12.9611 9.53792 13.9125 10.9352 14.4476 12.6298C14.8936 14.2947 14.8639 16.2569 13.6152 17.4461V17.4164ZM13.526 17.2975C14.7152 16.1677 14.2693 14.2055 13.526 12.9569C12.7233 11.6785 11.7125 10.4001 10.6125 9.44872C9.51244 8.49735 8.14486 7.84329 6.74754 7.84329C5.40968 7.84329 3.92318 8.646 3.80426 10.073C3.77453 10.4595 3.80426 10.8758 3.68534 11.3514C3.56641 11.8271 3.17992 12.2136 2.91234 12.4812C2.28801 12.9866 1.93125 13.6407 1.96098 14.4137C1.99071 15.9893 3.3583 17.0596 4.69616 17.6245C6.06375 18.2488 7.52052 18.5462 9.06649 18.6354C10.6125 18.6651 12.2773 18.3083 13.526 17.2678V17.2975Z" fill="#DB5B20"/>
<path d="M8.35296 7.15949C7.84755 6.74327 7.9962 6.11893 8.02593 5.64325C8.14485 5.01891 8.70972 4.54322 9.12594 4.33511C9.42324 4.09727 9.92866 3.91891 10.107 3.68107C10.3449 3.4135 10.6422 2.93781 11.2665 2.61078C12.5152 2.10537 13.5557 2.67023 14.3585 3.20537C15.1612 3.74052 15.9044 4.36485 16.6179 4.98918C17.3315 5.64324 18.0153 6.32705 18.4612 7.39734C18.8774 8.46762 18.7882 9.65682 18.4315 10.6379C17.6288 12.5704 16.2017 13.938 14.6855 15.0974L14.5666 15.0083C15.3693 13.2542 16.4396 11.7082 16.9153 10.1325C17.1531 9.35952 17.3017 8.61626 17.1234 7.87301C16.9152 7.18922 16.4396 6.32704 15.9936 5.55406C15.4882 4.78108 14.8936 4.06755 14.0909 3.65133C13.3476 3.20538 12.3071 3.32429 11.8611 3.71078C11.653 3.85943 11.4449 4.2162 11.0287 4.6027C10.5827 5.07838 10.107 5.13784 9.63136 5.37569C9.21514 5.55407 8.91784 5.61351 8.73946 5.94054C8.56108 6.29731 8.2935 6.773 8.38269 7.0703L8.2935 7.18921L8.35296 7.15949Z" fill="#DB5B20"/>
<path d="M2.37719 16.584C2.05016 16.7921 1.87178 17.2677 1.75286 17.6245C1.60421 18.011 1.75286 18.2191 1.87178 18.6056C2.19882 19.2597 2.79342 20.5975 2.52585 21.43C2.3772 22.084 2.76369 22.9462 3.5664 23.3327C4.33939 23.7192 5.29075 23.63 6.15292 23.3922C7.0151 23.0949 7.87728 22.7381 8.73946 22.5002C9.60163 22.2624 10.4935 21.9948 11.1773 21.6084C12.6341 21.0435 13.199 19.438 13.526 17.5353H13.6747C13.972 18.4272 14.0909 19.438 13.8828 20.4786C13.6747 21.5192 12.8719 22.53 11.9206 23.0354C10.9989 23.5705 10.0476 23.7192 9.09622 23.8678C8.14485 24.0462 7.19348 24.1651 6.27185 24.1949C5.32048 24.1949 4.33938 24.1354 3.38802 23.7786C2.49611 23.4813 1.42584 22.7084 1.30692 21.4597C1.30692 20.3894 1.00961 20.0029 0.771772 18.9326C0.623121 18.457 0.712307 17.6542 1.06907 17.238C1.3961 16.8515 1.78259 16.4056 2.37719 16.4056V16.5542V16.584Z" fill="#DB5B20"/>
<path d="M4.42859 24.1949C4.3394 24.5219 4.54751 24.8787 4.69617 25.176C4.87455 25.5328 5.02319 25.5625 5.35022 25.7111C6.03401 25.9193 6.95566 26.6922 7.34215 27.2868C7.75837 27.9112 8.14486 28.5652 8.88812 28.595C9.60164 28.595 10.3152 28.149 10.7908 27.5841C11.7125 26.4247 12.1882 24.9976 12.7233 23.5706C13.2585 22.2327 13.4963 20.7759 13.4963 19.1408H13.6449C14.5666 20.5084 14.745 22.4111 14.2395 24.1057C13.6747 25.6219 12.9017 27.2868 11.326 28.2382C10.553 28.6842 9.78002 29.0112 8.91784 29.1004C7.99621 29.2193 7.04485 28.6842 6.45025 28.149C5.79618 27.5247 5.52861 27.1977 4.75563 26.6922C4.36913 26.4841 3.98264 25.8301 3.98264 25.4138C3.95291 24.9679 3.92318 24.4327 4.33941 24.1057L4.42859 24.2246V24.1949Z" fill="#DB5B20"/>
<path d="M16.172 13.1353C17.0936 13.611 17.9261 14.3245 18.5504 15.2462C19.1747 16.1678 19.5018 17.3867 19.2342 18.6057C18.9369 19.8246 18.0747 20.8057 17.0936 21.3111C16.0828 21.8462 15.0125 22.0246 13.972 21.9355C14.8936 21.43 15.7855 20.9543 16.4693 20.3597C17.1234 19.7651 17.6585 19.0516 17.8071 18.2786C17.9855 17.5056 17.8369 16.6137 17.5693 15.7516C17.2423 14.8894 16.7071 14.0272 16.2017 13.1056L16.172 13.1353Z" fill="#DB5B20"/>
<path d="M13.5557 17.2678C12.0395 15.6326 10.107 14.265 7.93674 13.4028C10.2557 13.8191 12.5152 14.7407 14.5368 16.138L13.5557 17.2678Z" fill="#DB5B20"/>
<path d="M13.8828 19.7354C12.8719 19.8543 11.653 20.3597 10.4638 20.7165C9.30431 21.0138 7.93673 21.43 6.77725 20.8949C7.99619 21.1922 9.12593 20.5381 10.1962 20.0327C11.2962 19.4678 12.2179 18.784 13.5855 18.3083L13.8828 19.7651V19.7354Z" fill="#DB5B20"/>
<path d="M13.972 22.0543C12.5746 23.2733 11.0584 24.4922 9.33405 25.1463C10.7908 24.0462 11.8611 22.5598 12.8422 21.0732L13.972 22.0543Z" fill="#DB5B20"/>
<path d="M15.9936 13.5812C15.1314 13.1055 15.3098 12.5704 15.2206 12.3326L15.1612 11.5596C15.1612 11.1136 14.953 10.7271 14.6557 10.2514C14.1206 9.35954 13.4368 8.52709 12.8125 7.66492C13.6152 8.34871 14.4476 9.03251 15.2503 9.80549C15.6368 10.1623 16.0531 10.6974 16.2314 11.292L16.4693 12.0947C16.4693 12.3325 16.7666 12.4515 16.4396 12.1839L15.9639 13.5812H15.9936Z" fill="#DB5B20"/>
<path d="M19.3531 17.8921C24.6451 22.5894 28.5397 28.803 31.0371 35.4031C33.3858 42.0924 34.7236 49.0195 36.002 55.9169C38.3804 69.8307 38.4399 83.9227 38.4399 97.9554H38.2912C36.5074 83.9822 36.5669 69.9496 35.1993 56.0358C34.6047 49.0492 32.7614 42.2113 29.9073 35.8491C27.2316 29.4274 23.8126 23.3624 19.2639 17.9812L19.3828 17.8921H19.3531Z" fill="#DB5B20"/>
<path d="M58.5672 14.7407C55.7131 17.2678 52.9779 19.7949 50.3022 22.4409C47.4779 24.9382 44.9508 27.822 43.2265 31.2113C39.6886 37.9005 37.1318 44.8574 35.1993 52.2305H35.0507C35.1993 44.5304 38.0534 36.9789 42.5427 30.7653C44.8616 27.7031 46.9724 24.5814 49.4103 21.5787C51.9671 18.7246 55.059 16.3165 58.478 14.5921L58.5672 14.711V14.7407Z" fill="#DB5B20"/>
<path d="M28.8073 31.3301C29.6992 28.476 30.5911 25.5328 30.3235 22.5597C30.0262 19.1705 28.2722 16.0786 27.8857 12.7488C26.5478 15.484 25.5965 18.4272 25.5667 21.4597C25.537 24.4922 26.4289 27.6139 28.8073 31.3004V31.3301Z" stroke="#DB5B20" stroke-width="0.63956" stroke-miterlimit="10"/>
<path d="M28.4506 30.6761C27.856 27.4949 27.7073 24.2544 28.0046 21.0732C28.0046 24.2544 28.4506 27.4355 29.3127 30.468L28.4506 30.6761Z" fill="#DB5B20"/>
<path d="M30.0857 36.0275C28.8668 34.095 27.6181 32.1031 25.6856 31.0328C23.4856 29.8139 20.6018 29.9328 18.372 28.8328C19.2342 31.0923 20.4828 33.1139 22.2964 34.4518C24.1099 35.7897 26.4883 36.3843 30.1154 36.0275H30.0857Z" stroke="#DB5B20" stroke-width="0.63956" stroke-miterlimit="10"/>
<path d="M30.0857 36.0275C28.8668 34.095 27.6181 32.1031 25.6856 31.0328C23.4856 29.8139 20.6018 29.9328 18.372 28.8328C19.2342 31.0923 20.4828 33.1139 22.2964 34.4518C24.1099 35.7897 26.4883 36.3843 30.1154 36.0275H30.0857Z" stroke="#DB5B20" stroke-width="0.63956" stroke-miterlimit="10"/>
<path d="M29.5803 35.8788C27.3208 35.0166 25.2397 33.7085 23.4856 32.1031C25.4181 33.4707 27.6181 34.4518 29.8478 35.0166L29.5803 35.8788Z" fill="#DB5B20"/>
<path d="M36.2993 50.952C37.4291 48.9601 38.5885 46.9087 40.4913 45.779C42.6318 44.4709 45.5454 44.4411 47.686 43.2519C46.913 45.5411 45.7535 47.6222 44.0292 49.0493C42.2751 50.4763 39.9264 51.1601 36.2993 50.9818V50.952Z" stroke="#DB5B20" stroke-width="1.06593" stroke-miterlimit="10"/>
<path d="M36.2993 50.952C37.4291 48.9601 38.5885 46.9087 40.4913 45.779C42.6318 44.4709 45.5454 44.4411 47.686 43.2519C46.913 45.5411 45.7535 47.6222 44.0292 49.0493C42.2751 50.4763 39.9264 51.1601 36.2993 50.9818V50.952Z" stroke="#DB5B20" stroke-width="0.63956" stroke-miterlimit="10"/>
<path d="M37.102 49.6142C39.3318 49.0493 41.5021 48.0682 43.4346 46.7006C41.8291 48.4547 39.8372 49.9412 37.6074 51.0115L37.102 49.6142Z" fill="#DB5B20"/>
<path d="M48.5481 24.5219C50.54 25.6219 52.6212 26.7517 54.8212 26.722C57.3483 26.722 59.8159 25.2057 62.2835 25.0868C60.4402 23.5408 58.3591 22.3813 56.1293 22.084C53.8996 21.7867 51.5211 22.4408 48.5481 24.5219Z" stroke="#DB5B20" stroke-width="0.63956" stroke-miterlimit="10"/>
<path d="M48.5481 24.5219C50.54 25.6219 52.6212 26.7517 54.8212 26.722C57.3483 26.722 59.8159 25.2057 62.2835 25.0868C60.4402 23.5408 58.3591 22.3813 56.1293 22.084C53.8996 21.7867 51.5211 22.4408 48.5481 24.5219Z" stroke="#DB5B20" stroke-width="0.63956" stroke-miterlimit="10"/>
<path d="M48.9941 24.403C51.6103 23.9273 54.2861 23.8976 56.8726 24.3733C54.2563 24.1949 51.6698 24.5219 49.2022 25.2651L48.9941 24.403Z" fill="#DB5B20"/>
<path d="M37.5777 72.2686C38.2318 68.3739 38.9155 64.3603 41.1453 61.5657C43.6724 58.4143 47.9238 57.1656 50.5103 54.1629C50.54 58.444 49.9157 62.5171 48.0427 65.6982C46.1994 68.8793 43.048 71.0794 37.5777 72.2686Z" stroke="#DB5B20" stroke-width="1.06593" stroke-miterlimit="10"/>
<path d="M37.5777 72.2686C38.2318 68.3739 38.9155 64.3603 41.1453 61.5657C43.6724 58.4143 47.9238 57.1656 50.5103 54.1629C50.54 58.444 49.9157 62.5171 48.0427 65.6982C46.1994 68.8793 43.048 71.0794 37.5777 72.2686Z" stroke="#DB5B20" stroke-width="1.06593" stroke-miterlimit="10"/>
<path d="M37.6372 71.1388C40.6697 68.9982 43.2859 66.1739 45.2778 62.9036C43.7319 66.382 41.4724 69.6226 38.5885 72.2686L37.6372 71.1091V71.1388Z" fill="#DB5B20"/>
<path d="M36.9237 81.8417C33.029 81.1281 29.0452 80.3849 26.2802 78.1254C23.1586 75.5686 21.9694 71.2875 19.0261 68.6415C23.3072 68.6712 27.3803 69.3847 30.5317 71.2875C33.6831 73.1902 35.8236 76.3713 36.9237 81.8417Z" stroke="#DB5B20" stroke-width="1.06593" stroke-miterlimit="10"/>
<path d="M36.9237 81.8417C33.029 81.1281 29.0452 80.3849 26.2802 78.1254C23.1586 75.5686 21.9694 71.2875 19.0261 68.6415C23.3072 68.6712 27.3803 69.3847 30.5317 71.2875C33.6831 73.1902 35.8236 76.3713 36.9237 81.8417Z" stroke="#DB5B20" stroke-width="1.06593" stroke-miterlimit="10"/>
<path d="M35.7642 81.7822C33.6533 78.72 30.8884 76.074 27.6478 74.0226C31.0965 75.6281 34.3074 77.947 36.9236 80.8606L35.7642 81.7822Z" fill="#DB5B20"/>
<path d="M36.2399 68.3442C31.3641 58.3549 23.3667 49.6439 13.2585 44.5303C18.4315 46.8196 23.1289 50.1493 27.2316 54.0737C31.3344 58.0278 34.8425 62.6063 37.548 67.6604L36.2101 68.3442H36.2399Z" fill="#DB5B20"/>
<path d="M39.7183 35.7599C40.1345 33.5004 40.5507 31.2112 39.8669 29.1004C39.0642 26.7219 36.8642 24.8192 36.002 22.53C35.1101 24.7895 34.6344 27.1084 35.0507 29.3085C35.4669 31.5085 36.8345 33.5599 39.7183 35.7599Z" stroke="#DB5B20" stroke-width="0.63956" stroke-miterlimit="10"/>
<path d="M39.7183 35.7599C40.1345 33.5004 40.5507 31.2112 39.8669 29.1004C39.0642 26.7219 36.8642 24.8192 36.002 22.53C35.1101 24.7895 34.6344 27.1084 35.0507 29.3085C35.4669 31.5085 36.8345 33.5599 39.7183 35.7599Z" stroke="#DB5B20" stroke-width="0.63956" stroke-miterlimit="10"/>
<path d="M39.2723 35.4924C38.202 33.3221 37.548 30.9437 37.3398 28.595C37.8155 30.9139 38.7669 33.114 40.0453 35.0761L39.2723 35.5221V35.4924Z" fill="#DB5B20"/>
<path d="M41.8588 32.4896C42.8102 31.3301 43.7913 30.1409 43.8508 28.7436C43.94 27.1679 42.8399 25.4733 42.8399 23.8976C41.5318 24.9084 40.521 26.1273 40.1939 27.4949C39.8669 28.8625 40.3129 30.4382 41.8588 32.4896Z" stroke="#DB5B20" stroke-width="0.63956" stroke-miterlimit="10"/>
<path d="M41.8588 32.4896C42.8102 31.3301 43.7913 30.1409 43.8508 28.7436C43.94 27.1679 42.8399 25.4733 42.8399 23.8976C41.5318 24.9084 40.521 26.1273 40.1939 27.4949C39.8669 28.8625 40.3129 30.4382 41.8588 32.4896Z" stroke="#DB5B20" stroke-width="0.63956" stroke-miterlimit="10"/>
<path d="M41.4426 31.8058C41.294 30.2301 41.5021 28.6544 42.067 27.257C41.7994 28.7436 41.9183 30.2598 42.3345 31.6274L41.4724 31.8058H41.4426Z" fill="#DB5B20"/>
<path d="M48.9941 18.0407C48.667 16.584 48.3103 15.0677 47.24 14.1758C46.0211 13.1353 44.0292 12.9866 42.7805 12.0352C42.7805 13.7001 43.1372 15.2461 44.0291 16.3164C44.9211 17.3867 46.4076 18.011 48.9941 18.0407Z" stroke="#DB5B20" stroke-width="0.63956" stroke-miterlimit="10"/>
<path d="M48.9941 18.0407C48.667 16.584 48.3103 15.0677 47.24 14.1758C46.0211 13.1353 44.0292 12.9866 42.7805 12.0352C42.7805 13.7001 43.1372 15.2461 44.0291 16.3164C44.9211 17.3867 46.4076 18.011 48.9941 18.0407Z" stroke="#DB5B20" stroke-width="0.63956" stroke-miterlimit="10"/>
<path d="M48.1914 17.9516C46.8535 17.1191 45.7238 15.9894 44.9508 14.6812C45.9616 15.811 47.24 16.6434 48.5779 17.1489L48.1914 17.9516Z" fill="#DB5B20"/>
<path d="M48.9941 15.6326C49.3211 14.1758 49.6779 12.6596 50.7482 11.7677C51.9671 10.7271 53.959 10.5785 55.2077 9.62711C55.2077 11.292 54.8509 12.8379 53.959 13.9082C53.0671 14.9785 51.5806 15.6029 48.9941 15.6326Z" stroke="#DB5B20" stroke-width="0.63956" stroke-miterlimit="10"/>
<path d="M48.9941 15.6326C49.3211 14.1758 49.6779 12.6596 50.7482 11.7677C51.9671 10.7271 53.959 10.5785 55.2077 9.62711C55.2077 11.292 54.8509 12.8379 53.959 13.9082C53.0671 14.9785 51.5806 15.6029 48.9941 15.6326Z" stroke="#DB5B20" stroke-width="0.63956" stroke-miterlimit="10"/>
<path d="M49.4103 14.7407C50.7779 14.2353 52.0265 13.4029 53.0374 12.2731C52.2644 13.5813 51.1346 14.711 49.7968 15.5434L49.4103 14.7407Z" fill="#DB5B20"/>
<path d="M47.6562 8.02169C48.6968 7.87304 49.7968 7.69465 50.4806 7.04059C51.2536 6.29734 51.4617 4.9892 52.1752 4.21621C50.986 4.15675 49.886 4.30542 49.0833 4.84057C48.2805 5.37571 47.7751 6.32707 47.6562 8.02169Z" stroke="#DB5B20" stroke-width="0.63956" stroke-miterlimit="10"/>
<path d="M47.6562 8.02169C48.6968 7.87304 49.7968 7.69465 50.4806 7.04059C51.2536 6.29734 51.4617 4.9892 52.1752 4.21621C50.986 4.15675 49.886 4.30542 49.0833 4.84057C48.2805 5.37571 47.7751 6.32707 47.6562 8.02169Z" stroke="#DB5B20" stroke-width="0.63956" stroke-miterlimit="10"/>
<path d="M47.6562 7.39735C48.3697 6.56491 49.2319 5.91082 50.1833 5.4946C49.3806 6.14866 48.786 6.98111 48.3995 7.84328L47.6562 7.36761V7.39735Z" fill="#DB5B20"/>
<path d="M46.8238 6.26762C45.8427 5.82167 44.8616 5.37572 44.3859 4.573C43.8508 3.65137 43.9994 2.34324 43.494 1.39188C44.6535 1.65945 45.6643 2.07568 46.2887 2.81893C46.913 3.56219 47.1508 4.60273 46.8238 6.26762Z" stroke="#DB5B20" stroke-width="0.63956" stroke-miterlimit="10"/>
<path d="M46.8238 6.26762C45.8427 5.82167 44.8616 5.37572 44.3859 4.573C43.8508 3.65137 43.9994 2.34324 43.494 1.39188C44.6535 1.65945 45.6643 2.07568 46.2887 2.81893C46.913 3.56219 47.1508 4.60273 46.8238 6.26762Z" stroke="#DB5B20" stroke-width="0.63956" stroke-miterlimit="10"/>
<path d="M46.14 5.91085C46.0211 4.95949 45.6643 4.0081 45.0399 3.17566C45.8427 3.79999 46.5265 4.66218 46.9724 5.673L46.1102 5.91085H46.14Z" fill="#DB5B20"/>
<path d="M14.9233 45.779C14.2693 46.6114 13.5855 47.4439 12.6638 47.7115C11.6233 48.0088 10.4044 47.5034 9.3638 47.7412C9.89894 46.7006 10.5827 45.8087 11.4746 45.3925C12.3665 44.9763 13.4071 45.0357 14.9233 45.7493V45.779Z" stroke="#DB5B20" stroke-width="0.63956" stroke-miterlimit="10"/>
<path d="M14.9233 45.779C14.2693 46.6114 13.5855 47.4439 12.6638 47.7115C11.6233 48.0088 10.4044 47.5034 9.3638 47.7412C9.89894 46.7006 10.5827 45.8087 11.4746 45.3925C12.3665 44.9763 13.4071 45.0357 14.9233 45.7493V45.779Z" stroke="#DB5B20" stroke-width="0.63956" stroke-miterlimit="10"/>
<path d="M14.4179 46.3439C13.4666 46.225 12.4557 46.3439 11.4746 46.7006C12.2774 46.0763 13.2882 45.6303 14.3882 45.452V46.3439H14.4179Z" fill="#DB5B20"/>
<path d="M21.1964 50.0304C20.245 51.1304 19.2936 52.2602 18.045 52.6467C16.6179 53.0926 14.9828 52.498 13.5854 52.8548C14.3584 51.4575 15.3395 50.298 16.5585 49.7034C17.7477 49.1088 19.2044 49.1385 21.2261 50.0007L21.1964 50.0304Z" stroke="#DB5B20" stroke-width="0.63956" stroke-miterlimit="10"/>
<path d="M21.1964 50.0304C20.245 51.1304 19.2936 52.2602 18.045 52.6467C16.6179 53.0926 14.9828 52.498 13.5854 52.8548C14.3584 51.4575 15.3395 50.298 16.5585 49.7034C17.7477 49.1088 19.2044 49.1385 21.2261 50.0007L21.1964 50.0304Z" stroke="#DB5B20" stroke-width="0.63956" stroke-miterlimit="10"/>
<path d="M20.5126 50.6845C19.1747 50.625 17.7774 50.8629 16.4693 51.4277C17.6288 50.625 18.9964 50.0304 20.4531 49.7926L20.5126 50.6845Z" fill="#DB5B20"/>
<path d="M29.6398 57.7305C28.4505 59.4252 27.2019 61.1495 25.4478 61.5657C23.4262 62.0414 20.9288 60.7928 18.9072 61.1495C19.8288 58.9495 21.0477 57.1954 22.7126 56.3927C24.3775 55.6197 26.5181 55.8873 29.6398 57.7305Z" stroke="#DB5B20" stroke-width="0.63956" stroke-miterlimit="10"/>
<path d="M29.6398 57.7305C28.4505 59.4252 27.2019 61.1495 25.4478 61.5657C23.4262 62.0414 20.9288 60.7928 18.9072 61.1495C19.8288 58.9495 21.0477 57.1954 22.7126 56.3927C24.3775 55.6197 26.5181 55.8873 29.6398 57.7305Z" stroke="#DB5B20" stroke-width="0.63956" stroke-miterlimit="10"/>
<path d="M29.1343 58.2359C27.1722 57.9981 25.091 58.2359 23.218 59.0684C24.9721 57.9684 27.0532 57.4035 29.1938 57.344V58.2359H29.1343Z" fill="#DB5B20"/>
<path d="M31.5128 58.3845C32.6425 56.6602 33.7723 54.8467 33.5047 53.0628C33.1776 51.0115 31.0668 49.1682 30.6506 47.1465C28.956 48.8114 27.7668 50.625 27.6776 52.4682C27.5884 54.3115 28.6289 56.1845 31.5128 58.4143V58.3845Z" stroke="#DB5B20" stroke-width="0.63956" stroke-miterlimit="10"/>
<path d="M31.5128 58.3845C32.6425 56.6602 33.7723 54.8467 33.5047 53.0628C33.1776 51.0115 31.0668 49.1682 30.6506 47.1465C28.956 48.8114 27.7668 50.625 27.6776 52.4682C27.5884 54.3115 28.6289 56.1845 31.5128 58.4143V58.3845Z" stroke="#DB5B20" stroke-width="0.63956" stroke-miterlimit="10"/>
<path d="M30.9776 58.0873C30.2046 56.0953 29.9668 53.9548 30.3235 51.9034C30.2641 53.9548 30.7992 55.9764 31.7803 57.7008L30.9776 58.0873Z" fill="#DB5B20"/>
<path d="M22.7424 49.7926C23.0991 48.3952 23.4856 46.9385 23.0694 45.6898C22.5937 44.2925 21.1964 43.2817 20.691 41.9141C20.0072 43.3411 19.6207 44.8276 19.8288 46.1358C20.0369 47.4736 20.8693 48.6331 22.7721 49.7926H22.7424Z" stroke="#DB5B20" stroke-width="0.63956" stroke-miterlimit="10"/>
<path d="M22.7424 49.7926C23.0991 48.3952 23.4856 46.9385 23.0694 45.6898C22.5937 44.2925 21.1964 43.2817 20.691 41.9141C20.0072 43.3411 19.6207 44.8276 19.8288 46.1358C20.0369 47.4736 20.8693 48.6331 22.7721 49.7926H22.7424Z" stroke="#DB5B20" stroke-width="0.63956" stroke-miterlimit="10"/>
<path d="M22.118 49.3169C21.464 47.979 21.1667 46.552 21.1667 45.1249C21.464 46.4925 22.0586 47.7709 22.891 48.8412L22.118 49.3169Z" fill="#DB5B20"/>
<path d="M15.9044 45.3628C16.172 44.2033 16.4693 43.0141 15.9936 41.9735C15.4585 40.7843 14.0017 39.9519 13.4071 38.7924C12.8125 39.9816 12.5152 41.2005 12.7828 42.3005C13.0503 43.4006 13.972 44.3817 15.9044 45.3628Z" stroke="#DB5B20" stroke-width="0.63956" stroke-miterlimit="10"/>
<path d="M15.9044 45.3628C16.172 44.2033 16.4693 43.0141 15.9936 41.9735C15.4585 40.7843 14.0017 39.9519 13.4071 38.7924C12.8125 39.9816 12.5152 41.2005 12.7828 42.3005C13.0503 43.4006 13.972 44.3817 15.9044 45.3628Z" stroke="#DB5B20" stroke-width="0.63956" stroke-miterlimit="10"/>
<path d="M15.2801 45.0655C14.5963 43.9655 14.1503 42.7168 14.0611 41.4979C14.4476 42.6871 15.1314 43.6979 15.9639 44.5304L15.2503 45.0952L15.2801 45.0655Z" fill="#DB5B20"/>
<path d="M49.113 21.9057C49.7968 18.9327 48.9049 15.811 47.9833 12.719C47.5373 11.1731 47.0913 9.59738 46.9724 7.96222C46.8535 6.32706 47.1211 4.66219 47.8941 3.23514C47.24 4.72165 47.0914 6.35679 47.3292 7.93249C47.567 9.50818 48.1022 10.9947 48.667 12.5109C49.7968 15.484 51.0455 18.6948 50.5401 22.1732L49.0833 21.9057H49.113Z" fill="#DB5B20"/>
</svg>
