<svg width="49" height="98" viewBox="0 0 49 98" fill="none" xmlns="http://www.w3.org/2000/svg">
<path d="M36.6666 7.9693C39.0972 7.47828 41.9206 7.77288 44.1056 9.39324C44.6212 9.81061 45.1367 10.2771 45.5295 10.8663C45.8978 11.4555 46.1924 12.2657 45.9469 13.0514C45.726 13.8124 45.1367 14.4016 44.4247 14.5735C43.7128 14.7208 42.9762 14.4999 42.5589 14.0088C43.7373 14.5981 44.9894 13.8124 45.0385 12.8549C45.1367 11.9466 44.2774 11.0627 43.3936 10.3753C41.5523 8.95133 39.1708 8.43577 36.6912 7.9693H36.6666Z" fill="#DB5B20"/>
<path d="M36.6912 9.73697C38.9253 10.6208 40.9876 11.9466 42.8044 13.616C43.7128 14.4508 44.4984 15.531 44.9158 16.7831C45.1122 17.4214 45.2349 18.0843 45.1858 18.7717C45.1367 19.4592 44.8421 20.2693 44.2038 20.7604C42.878 21.7424 41.1349 21.3005 40.1529 20.3921C39.0972 19.5083 38.5816 18.3789 38.0661 17.2741C36.9122 15.1136 36.102 12.8795 35.2427 10.6454C35.881 11.652 36.4702 12.7076 37.084 13.7388C37.6487 14.7945 38.2625 15.8256 38.8762 16.8077L39.7846 18.3053C40.1283 18.7717 40.4966 19.1891 40.8894 19.5083C41.675 20.1711 42.7798 20.3185 43.4673 19.8029C44.1056 19.3364 44.1547 18.1334 43.8355 17.1268C43.5409 16.0711 42.9026 15.1382 42.1661 14.2789C40.5948 12.5603 38.7289 11.0873 36.7158 9.73697H36.6912Z" fill="#DB5B20"/>
<path d="M39.269 18.5017C39.7355 20.2939 39.6373 22.3807 38.2379 24.0256C37.5505 24.8358 36.1265 25.1795 35.0954 24.5903C34.0642 24.0747 33.475 23.0436 33.205 22.0861C32.7139 20.122 32.8367 18.3544 32.763 16.4639C32.763 14.6472 32.5666 12.7076 33.3032 10.94C33.0822 12.7813 33.4996 14.5735 33.696 16.3903C33.8187 17.2987 33.8924 18.207 33.9906 19.1154C34.0642 20.0238 34.1379 20.9568 34.3834 21.7424C34.7271 23.3382 36.3475 24.4675 37.5996 23.3382C38.2133 22.8472 38.6062 22.037 38.8517 21.1777C39.1463 20.343 39.2445 19.4346 39.2445 18.5017H39.269Z" fill="#DB5B20"/>
<path d="M33.5487 21.4232C33.2295 22.2089 32.8367 22.9699 32.2475 23.6328C31.6337 24.2711 30.7008 24.7376 29.7187 24.6885C28.6876 24.7131 27.681 23.7801 27.46 22.7981C27.19 21.7915 27.4355 20.8586 27.6319 20.0484C28.5157 16.7585 30.0379 13.7142 31.9037 10.94C30.8972 14.1561 29.596 17.2005 28.8103 20.3675C28.2948 21.8651 28.393 23.5346 29.7924 23.7556C31.2409 24.0502 32.5175 22.7244 33.5241 21.4232H33.5487Z" fill="#DB5B20"/>
<path d="M31.1918 12.6585C30.5289 14.5981 29.4487 16.3903 28.0493 17.937C27.3373 18.6981 26.6498 19.4592 25.5205 19.9747C24.9558 20.2202 24.2439 20.2939 23.6301 20.0484C22.9918 19.852 22.378 19.1891 22.3043 18.4771C22.2061 17.0777 22.8936 16.1448 23.5319 15.2609C24.2193 14.4262 25.0295 13.7142 25.8642 13.125C27.5828 11.9957 29.3505 10.94 31.1427 9.98248C29.6205 11.3573 28.0247 12.6094 26.478 13.837C25.7415 14.5244 25.0295 15.1873 24.4648 15.9484C23.9247 16.6849 23.4337 17.6178 23.5319 18.2807C23.5319 18.8699 24.3912 19.1891 25.1277 18.8699C25.8888 18.5999 26.6498 17.8633 27.4109 17.2496C28.8594 15.9238 30.1115 14.328 31.2163 12.634L31.1918 12.6585Z" fill="#DB5B20"/>
<path d="M25.8888 13.5915C24.9313 13.8861 23.7528 13.0022 23.6792 11.7992C23.5564 10.6208 24.4157 9.516 25.4223 9.12318C26.4043 8.73037 27.3127 8.60762 28.2948 8.55852C29.2523 8.53397 30.2097 8.58307 31.1181 8.87768C30.1852 9.09864 29.3014 9.27049 28.4175 9.49145C27.5582 9.73696 26.6498 9.93338 25.9133 10.2525C25.2013 10.5226 24.7349 11.1118 24.6121 11.8238C24.4894 12.4867 24.9558 13.3705 25.8888 13.616V13.5915Z" fill="#DB5B20"/>
<path d="M33.9791 10.7188C35.5968 10.5445 36.8187 9.57265 36.7083 8.54808C36.5979 7.52352 35.197 6.83425 33.5793 7.00857C31.9615 7.18288 30.7396 8.15477 30.85 9.17933C30.9604 10.2039 32.3613 10.8931 33.9791 10.7188Z" stroke="#DB5B20" stroke-width="1.06593" stroke-miterlimit="10"/>
<path d="M16.4612 1.41418C18.5235 0.923156 20.9049 1.11956 22.8199 2.46987C23.2864 2.81358 23.7037 3.2064 24.072 3.72197C24.3912 4.21299 24.6858 4.94952 24.4648 5.63695C24.2439 6.29982 23.7037 6.79084 23.09 6.93814C22.4762 7.03635 21.8379 6.83996 21.4941 6.39804C22.5007 6.83996 23.5073 6.17708 23.5319 5.416C23.581 4.72857 22.869 3.99203 22.1079 3.45191C20.5612 2.32257 18.5726 1.88064 16.4612 1.41418Z" fill="#DB5B20"/>
<path d="M16.4612 2.88723C18.3762 3.57465 20.1193 4.63033 21.6906 5.98064C22.4762 6.66806 23.1636 7.5519 23.5564 8.60759C23.9001 9.58963 24.0965 11.0627 22.9181 12.0693C21.7642 12.8795 20.2911 12.5358 19.4073 11.7992C18.4744 11.0627 18.0325 10.1052 17.5905 9.19683C16.6085 7.38005 15.9211 5.53872 15.2091 3.62374C16.363 5.26866 17.2959 7.08543 18.4007 8.70579C18.9408 9.51598 19.4073 10.4244 20.1193 10.8908C20.7576 11.4064 21.666 11.4801 22.1816 11.0872C22.6726 10.7681 22.7217 9.81059 22.4516 8.97586C22.2061 8.11657 21.666 7.3555 21.0277 6.64352C19.7019 5.24412 18.1307 3.99202 16.4612 2.86267V2.88723Z" fill="#DB5B20"/>
<path d="M18.6708 10.1052C19.0881 11.5783 19.039 13.346 17.836 14.7208C17.2468 15.4083 16.0438 15.6783 15.1354 15.2364C14.2516 14.8436 13.6869 13.9598 13.4414 13.1496C12.9995 11.4801 13.1223 10.0316 13.0486 8.46033C13.0486 6.93817 12.9259 5.3178 13.5887 3.86929C13.4414 5.39145 13.8342 6.88907 14.0061 8.38668C14.2762 9.85974 14.2271 11.5047 14.6199 12.7813C14.939 14.058 16.1911 14.8681 17.2223 14.0334C17.7133 13.6651 18.057 13.0023 18.3025 12.3148C18.5726 11.6274 18.6708 10.8909 18.6953 10.1052H18.6708Z" fill="#DB5B20"/>
<path d="M13.7851 12.5112C13.5396 13.1741 13.1959 13.8125 12.7049 14.3771C12.1893 14.9172 11.4037 15.3101 10.569 15.3101C9.70968 15.3592 8.7522 14.6472 8.53124 13.7633C8.26118 12.9041 8.48214 12.0693 8.62944 11.4064C9.39052 8.65673 10.7163 6.12798 12.3857 3.86929C11.5756 6.5699 10.4953 9.09866 9.83244 11.7256C9.41507 13.0023 9.51328 14.2053 10.6426 14.3771C11.7965 14.6226 12.9013 13.5915 13.7851 12.5358V12.5112Z" fill="#DB5B20"/>
<path d="M11.7965 5.29325C11.2564 6.93816 10.3235 8.43577 9.14501 9.73697C8.53123 10.3753 7.94201 11.0136 6.98452 11.4555C6.4935 11.652 5.87973 11.7011 5.33961 11.5292C4.77494 11.3819 4.21026 10.7927 4.13661 10.1298C4.06296 8.87769 4.67673 8.09206 5.21685 7.38008C5.83063 6.69265 6.51806 6.10343 7.23003 5.61241C8.70309 4.70402 10.2007 3.84474 11.7474 3.10822C10.4708 4.28666 9.14501 5.3178 7.81926 6.34894C7.20548 6.91361 6.59171 7.45373 6.12524 8.09206C5.65877 8.68128 5.26595 9.46691 5.33961 9.93338C5.33961 10.3262 5.97793 10.5717 6.56716 10.3507C7.18093 10.1543 7.84381 9.56511 8.48213 9.04954C9.73423 7.9693 10.8145 6.6681 11.7965 5.26869V5.29325Z" fill="#DB5B20"/>
<path d="M7.25459 6.05431C6.44441 6.34893 5.36416 5.63696 5.29051 4.55672C5.16776 3.52558 6.00249 2.56809 6.86177 2.24893C7.72106 1.92976 8.48214 1.83156 9.31687 1.80701C10.1271 1.80701 10.9372 1.88066 11.7229 2.15072L9.46418 2.73994C8.7522 2.9609 7.96657 3.13276 7.35279 3.37827C6.76357 3.59923 6.3953 4.01659 6.248 4.58126C6.12524 5.09683 6.49351 5.83336 7.25459 6.05431Z" fill="#DB5B20"/>
<path d="M14.1647 3.67766C15.5409 3.5403 16.5889 2.75081 16.5054 1.9143C16.4219 1.07779 15.2386 0.511016 13.8624 0.648378C12.4862 0.78574 11.4382 1.57523 11.5217 2.41174C11.6052 3.24824 12.7885 3.81502 14.1647 3.67766Z" stroke="#DB5B20" stroke-width="1.06593" stroke-miterlimit="10"/>
<path d="M14.0061 12.9777C16.584 24.0501 19.9474 35.5155 22.2307 46.6616C25.6187 63.3317 24.9067 80.5419 24.1948 97.5558" stroke="#DB5B20" stroke-width="1.06593" stroke-miterlimit="10"/>
<path d="M33.5978 21.9388C32.2229 30.5316 32.7385 38.6825 31.4373 47.2999C30.4798 53.6341 28.0984 59.7227 24.4894 65.0257" stroke="#DB5B20" stroke-width="1.06593" stroke-miterlimit="10"/>
<path d="M13.2205 57.7095C13.1714 61.1958 14.3253 64.6084 15.872 67.7263C17.4187 70.8443 19.3582 73.7659 21.0522 76.8102C22.7462 79.8545 24.1457 83.1443 24.4894 86.606" stroke="#DB5B20" stroke-width="1.06593" stroke-miterlimit="10"/>
<path d="M19.1127 33.0603C17.8852 31.8082 16.7804 30.4825 15.651 29.1567C14.5953 27.7819 13.466 26.4807 12.4594 25.0322C11.4282 23.6328 10.569 22.1597 9.39051 20.9076C8.21207 19.6555 6.76356 18.7226 5.26595 17.8388L5.68332 17.6178C5.68332 19.5082 6.6408 21.2513 7.7947 22.6999C8.9486 24.1975 10.4708 25.4005 11.8456 26.8244C12.533 27.5364 13.2205 28.2729 13.8588 29.0831C14.4726 29.9178 14.939 30.8262 15.381 31.6855C15.8474 32.5202 16.2648 33.3795 16.9522 33.9933C17.6151 34.6071 18.4744 35.0981 19.4564 34.9999V35.1226C18.4989 35.4172 17.3696 35.1226 16.5348 34.5089C15.6756 33.8951 15.0372 33.0358 14.5217 32.2011C13.5151 30.4825 12.3612 29.1322 10.9618 27.7573C9.56237 26.4316 8.11386 25.0322 6.93542 23.3873C5.75697 21.7424 4.99589 19.6801 5.16775 17.6178L5.21685 17.1268L5.58511 17.3968C6.98452 18.428 8.43303 19.3855 9.75878 20.5639C11.0845 21.7424 12.263 23.0436 13.3432 24.4184C14.448 25.7687 15.4055 27.1927 16.4366 28.5921C17.4187 30.0406 18.3762 31.4645 19.26 32.9867L19.1618 33.0603H19.1127Z" fill="#DB5B20"/>
<path d="M20.9049 41.7269C21.9115 40.4993 22.5498 39.0999 22.7708 37.6268C23.0163 36.1538 22.8936 34.6071 22.9918 33.0358C23.0654 31.4645 23.1882 29.8687 23.09 28.2975C23.0163 26.7262 22.8444 25.1549 22.6726 23.5837L23.4337 23.9028C22.5744 24.7621 22.0343 25.8915 21.7151 27.0945C21.4205 28.2975 21.3223 29.5741 21.2241 30.8508C21.0522 33.4777 20.8313 36.1047 20.3648 38.7316H20.242C19.972 36.0801 19.9229 33.4532 19.9474 30.8017C19.9474 29.4759 20.0947 28.0765 20.5367 26.7507C20.954 25.425 21.6906 24.1238 22.8199 23.2154L23.6301 22.5771L23.581 23.5346C23.5073 25.1058 23.4337 26.7016 23.4582 28.2729C23.4582 29.8442 23.7037 31.4154 23.8756 32.9867C24.072 34.5334 24.1211 36.2029 23.7037 37.8232C23.2864 39.4436 22.3043 40.9167 20.954 41.8005L20.8804 41.7023L20.9049 41.7269Z" fill="#DB5B20"/>
<path d="M31.29 46.9562C31.3391 45.1395 30.578 43.5927 29.7187 42.0706C29.3014 41.3095 28.9085 40.4748 28.4912 39.64C28.1229 38.8053 27.681 37.9951 27.3373 37.1113L27.7546 37.0376C27.8283 38.1915 28.0738 39.3454 28.2457 40.4748C28.4175 41.6041 28.663 42.7089 29.0067 43.7401C29.3014 44.7712 29.8415 45.8269 30.2343 46.9071C30.6762 47.9383 30.9954 49.2886 30.6271 50.4425H30.5043C30.3325 48.1101 28.4175 46.5143 27.7546 44.1083C27.4109 42.9299 27.2636 41.7269 27.2145 40.5484C27.1654 39.37 27.3127 38.1915 27.3127 37.0376V35.4664L27.7301 36.9394C27.9756 37.7987 28.4175 38.5843 28.9822 39.2963C29.5223 40.0083 30.1606 40.6712 30.6517 41.4814C31.1427 42.2915 31.5109 43.1754 31.6828 44.1329C31.8547 45.0658 31.8301 46.0969 31.3882 46.9562H31.2654H31.29Z" fill="#DB5B20"/>
<path d="M28.1966 58.2251C29.6205 56.8012 31.0445 55.4263 31.9283 53.6586C32.4439 52.7994 32.9349 51.891 33.7205 51.1053C34.4816 50.3197 35.39 49.755 36.3229 49.3131C38.1888 48.4293 40.0792 47.8155 41.9451 47.0544C43.811 46.2933 45.6523 45.4832 47.4445 44.5993L48.7457 43.961L47.69 44.9921L42.608 50.0005C40.8894 51.6209 39.2199 53.3149 37.575 55.0089C35.9301 56.6539 34.5553 58.6179 32.6157 60.2383C30.5534 61.6868 28.172 62.2515 25.9379 63.0126L25.8888 62.8898C28.0001 61.7605 30.2588 60.8766 32.002 59.4527C33.5978 57.8814 34.9481 55.8682 36.6421 54.1497C38.2625 52.382 40.0792 50.8107 41.8714 49.2149C43.6637 47.6436 45.5541 46.1706 47.3709 44.6484L47.6164 45.0412C45.7505 45.8023 43.9337 46.6371 42.117 47.5209L36.7648 50.246C35.9056 50.7125 35.0954 51.2035 34.4079 51.8419C33.7451 52.4802 33.2295 53.2904 32.6648 54.1497C31.56 55.9173 29.8906 57.2431 28.2211 58.3233L28.1475 58.2251H28.1966Z" fill="#DB5B20"/>
<path d="M31.1918 60.2874L36.4948 61.9078C34.0888 63.0371 31.56 64.191 28.884 64.1665C27.7546 64.1665 26.6008 63.9455 25.5451 63.5036" stroke="#DB5B20" stroke-width="1.06593" stroke-miterlimit="10"/>
<path d="M24.2193 83.0462C24.563 80.9593 24.6121 78.8725 24.4157 76.8102C24.2193 74.7479 23.7528 72.7102 23.2864 70.6725C22.8444 68.6347 22.2552 66.597 21.5432 64.5838C20.8067 62.5952 19.9965 60.6557 19.1618 58.6916L19.972 58.5934C19.7265 62.276 19.8983 65.9341 20.3894 69.5677C20.8804 73.2012 21.7397 76.7611 22.869 80.321L22.7462 80.3701C20.9295 77.1048 19.751 73.4713 19.1373 69.7641C18.5235 66.0569 18.548 62.2269 19.1373 58.5197L19.4319 56.6539L19.9474 58.4215C20.5367 60.4593 21.175 62.4725 21.887 64.4611C22.6235 66.4497 23.4828 68.3892 24.1948 70.4024C24.8822 72.4156 25.2995 74.5761 25.3732 76.7366C25.4469 78.897 25.1522 81.0821 24.3421 83.0707H24.2193V83.0462Z" fill="#DB5B20"/>
<path d="M22.378 79.5599C21.175 78.2832 19.8247 77.203 18.3762 76.2701C16.9522 75.288 15.381 74.5515 13.8588 73.7168C12.3121 72.9311 10.7899 72.0227 9.26777 71.1144C7.77016 70.206 6.27255 69.2485 4.87314 68.1437L5.21686 67.8736C6.32165 69.7395 7.67195 71.4335 9.02226 73.103C10.4217 74.6988 11.8211 76.5401 13.4905 77.3994C14.3007 77.8413 15.4055 77.7922 16.584 78.3078C17.7624 78.8725 18.4498 79.8545 19.1618 80.6156C19.8738 81.4258 20.5858 81.9904 21.6415 82.2851C22.6235 82.5551 23.9738 83.218 24.0475 84.4701H23.9247C23.6301 83.3898 22.4762 83.1198 21.4696 82.9234C20.3648 82.8006 19.1864 82.1132 18.4253 81.3276C17.6151 80.5419 16.9031 79.7809 16.0684 79.4371C15.2582 79.0689 14.0798 79.118 12.9259 78.5533C11.7965 78.0377 10.9863 77.1539 10.2498 76.3192C9.53783 75.4844 8.82585 74.6251 8.18752 73.7413C6.88632 71.9736 5.80608 70.0341 4.79949 68.0946L4.23482 67.0143L5.1432 67.8245C6.4444 68.9784 7.94201 69.8868 9.51328 70.6479C11.0845 71.409 12.7295 71.9982 14.3253 72.7838C15.9211 73.5449 17.4432 74.4778 18.8917 75.5335C20.2912 76.6383 21.5924 77.9395 22.4762 79.4862L22.378 79.5599Z" fill="#DB5B20"/>
<path d="M24.7103 86.5815C25.4714 85.3294 26.3552 84.1755 27.2145 82.9725L28.5894 81.2539C29.0313 80.6893 29.5714 80.0755 30.4061 79.7072C31.2409 79.3635 32.002 79.4617 32.6648 79.339C33.3523 79.2408 34.0151 79.0443 34.678 78.7497C35.9547 78.136 37.084 77.1785 38.0906 76.1473L39.4164 74.797L38.4834 76.4665C37.6487 77.9396 36.8631 79.4372 36.0038 80.8857C35.5373 81.6222 35.1936 82.3342 34.6289 83.0707C34.0642 83.7827 33.4014 84.3719 32.7139 84.8875C30.087 86.9743 27.3127 88.8893 24.4403 90.657L24.3666 90.5588C26.7481 88.1773 29.2768 85.9432 31.9038 83.8809C32.5421 83.3408 33.1559 82.8252 33.6714 82.2605C34.1624 81.6959 34.6044 80.9102 35.0954 80.2473C36.0283 78.8725 37.0595 77.5467 38.0415 76.1964L38.4343 76.5156C37.305 77.4485 36.2002 78.406 34.9235 79.1671C34.2852 79.5599 33.5978 79.9036 32.8612 80.1246C32.1002 80.3456 31.3636 80.4192 30.8481 80.6647C29.866 81.2294 28.9085 82.5551 27.9511 83.5617C26.9445 84.5929 25.9379 85.6486 24.8331 86.6306L24.7349 86.5569L24.7103 86.5815Z" fill="#DB5B20"/>
<path d="M8.45758 43.7401C9.80788 41.997 11.8211 40.6221 14.2025 40.4012C14.7917 40.3766 15.381 40.3766 15.9947 40.5239C16.584 40.6712 17.2959 40.9904 17.6151 41.6778C17.9343 42.3407 17.8606 43.1018 17.4432 43.6173C17.0259 44.1083 16.3875 44.3539 15.8229 44.2557C16.9277 43.9365 17.3205 42.7335 16.7804 42.1688C16.3139 41.6287 15.2336 41.555 14.2762 41.6287C12.2875 41.776 10.3971 42.7335 8.43303 43.7401H8.45758Z" fill="#DB5B20"/>
<path d="M9.46417 44.8203C11.4282 44.1083 13.5396 43.7401 15.6756 43.7646C16.7558 43.7646 17.8852 43.9856 18.9163 44.5011C19.4319 44.7712 19.8983 45.1395 20.3157 45.6305C20.7085 46.097 21.0031 46.8335 20.8313 47.5946C20.4385 49.0431 19.0145 49.6569 17.8606 49.6814C16.6331 49.706 15.651 49.2886 14.669 48.8958C12.6558 48.1592 10.839 47.2018 8.97315 46.2443C11.0109 46.7353 12.9995 47.4964 14.939 47.9874L16.3875 48.4047C16.8786 48.5029 17.345 48.5521 17.787 48.5029C18.6708 48.5029 19.481 47.9628 19.6283 47.3C19.8001 46.7353 19.1373 45.9496 18.3516 45.5077C17.566 45.0167 16.584 44.8203 15.6019 44.6976C13.5887 44.5012 11.5019 44.5993 9.43962 44.8203H9.46417Z" fill="#DB5B20"/>
<path d="M16.142 48.8712C17.4678 49.7059 18.6708 51.0808 18.5971 52.9958C18.548 53.9532 17.7379 54.8862 16.7558 55.0826C15.7983 55.3281 14.8163 55.0335 14.0798 54.5916C12.6067 53.6341 11.6983 52.4311 10.569 51.3017C9.53783 50.1478 8.31028 49.0185 7.81926 47.4472C8.72765 48.7239 10.0534 49.5832 11.2318 50.6143C12.4348 51.5472 13.5396 52.7994 14.7181 53.5359C15.8229 54.297 17.4187 54.1251 17.6888 52.8239C17.8606 52.2101 17.6888 51.4736 17.3696 50.7862C17.0995 50.0742 16.6576 49.4604 16.142 48.8466V48.8712Z" fill="#DB5B20"/>
<path d="M13.9079 53.8551C14.1534 54.5179 14.3253 55.2299 14.3007 55.991C14.2516 56.7521 13.8588 57.5623 13.1959 58.0778C12.5576 58.667 11.4037 58.7161 10.6426 58.2497C9.85699 57.8078 9.41507 57.0467 9.09591 56.4084C7.79471 53.8305 7.10728 51.0317 6.86177 48.2083C8.04022 50.8107 8.92405 53.4377 10.1762 55.8682C10.7163 57.0958 11.6492 57.8814 12.6558 57.3168C13.736 56.7766 13.9325 55.279 13.8833 53.8551H13.9079Z" fill="#DB5B20"/>
<path d="M7.5492 49.7059C8.23663 51.3018 8.53124 53.0694 8.45758 54.8371C8.40848 55.7209 8.35938 56.6048 7.86836 57.5622C7.62285 58.0287 7.15638 58.4461 6.61626 58.6425C6.10069 58.8635 5.31506 58.8143 4.82404 58.397C3.8911 57.5377 3.842 56.5065 3.76835 55.5982C3.76835 54.6652 3.91565 53.7814 4.16116 52.9221C4.72584 51.2772 5.31506 49.6323 6.02704 48.0856C5.80608 49.8287 5.43781 51.4736 5.0941 53.1185C4.9959 53.9533 4.87314 54.7634 4.94679 55.5491C4.9959 56.2856 5.21686 57.1449 5.60967 57.4395C5.87973 57.7341 6.59171 57.5131 6.91087 56.973C7.27914 56.4329 7.40189 55.5491 7.5492 54.7634C7.81926 53.1185 7.77015 51.449 7.57375 49.7305L7.5492 49.7059Z" fill="#DB5B20"/>
<path d="M3.9893 54.6652C3.52283 55.5 2.19708 56.4083 0.969532 55.4263C-0.0616085 54.297 0.527615 52.8239 1.01863 51.9892C2.12343 50.197 3.52283 48.6503 5.2905 47.57C4.21026 49.3377 3.05636 50.9335 2.07433 52.603C1.58331 53.3886 1.31324 54.2479 1.65696 54.8125C1.95157 55.3527 3.17912 55.2545 3.9893 54.6898V54.6652Z" fill="#DB5B20"/>
<path d="M8.05337 47.0292C9.08865 46.0519 9.44501 44.7481 8.84932 44.1171C8.25363 43.486 6.93146 43.7668 5.89618 44.7441C4.86089 45.7214 4.50453 47.0252 5.10023 47.6562C5.69592 48.2873 7.01809 48.0065 8.05337 47.0292Z" stroke="#DB5B20" stroke-width="1.06593" stroke-miterlimit="10"/>
<path d="M45.7996 25.155C46.4379 25.3514 46.9535 25.646 47.4691 25.9651C48.0092 26.2843 48.5248 26.7753 48.8194 27.4873C49.0894 28.1747 49.0894 29.0831 48.5248 29.6969C47.9846 30.3352 46.9535 30.3598 46.5607 29.7951C47.1745 29.8933 47.6164 29.4759 47.7391 29.1568C47.8619 28.7885 47.8373 28.3466 47.6655 27.9538C47.3954 27.1436 46.3397 26.3089 45.7996 25.1795V25.155Z" fill="#DB5B20"/>
<path d="M44.1056 25.8915C45.1858 26.7017 46.0206 27.8801 46.5361 29.1813C46.8062 29.8196 47.0272 30.5562 46.9044 31.4154C46.8062 32.2256 45.996 33.1586 45.0385 33.1831C44.1056 33.2568 43.2463 32.6676 42.8289 31.9801C42.4116 31.2682 42.2643 30.4825 42.2888 29.7951C42.387 28.4202 42.7062 27.0699 43.0253 25.7687C43.1972 27.119 43.1481 28.4448 43.2218 29.7214C43.3445 30.949 44.0565 32.0538 44.9403 31.9556C45.7751 31.9556 46.0206 30.7035 45.6277 29.4759C45.3331 28.2484 44.793 27.0454 44.081 25.8915H44.1056Z" fill="#DB5B20"/>
<path d="M42.6325 30.3107C42.5343 31.5137 41.7487 32.6921 40.5457 33.3059C39.981 33.6496 38.9499 33.6987 38.3116 33.0849C37.6978 32.4957 37.5505 31.6364 37.6732 30.949C37.9433 29.5987 38.6062 28.5185 39.4409 27.6101C40.2756 26.7017 41.2086 25.9406 42.2152 25.3023C41.5523 26.3089 40.7912 27.2172 40.1774 28.1747C39.5882 29.1322 39.0481 30.1634 38.8762 31.1209C38.778 31.5873 38.8762 32.0047 39.1217 32.2747C39.3182 32.5448 39.6864 32.5694 40.1774 32.4466C41.1349 32.152 42.0433 31.3418 42.608 30.3107H42.6325Z" fill="#DB5B20"/>
<path d="M31.1427 48.9203C32.4439 45.7778 34.4079 43.0526 36.5684 40.4257C37.8205 38.8789 39.2199 37.4304 40.3984 35.7855C41.5768 34.1406 42.5098 32.2993 42.7307 30.3107" stroke="#DB5B20" stroke-width="1.06593" stroke-miterlimit="10"/>
<path d="M39.5391 28.2975C39.1463 28.4939 38.7044 28.6167 38.2625 28.764C37.7714 28.8131 37.2313 28.7149 36.7648 28.2975C35.8319 27.3891 36.2738 25.9406 36.9613 25.2532C38.3116 23.8538 40.3984 23.2891 42.0924 23.952C40.3738 24.2711 38.9008 25.0077 37.8696 26.0879C37.3786 26.5789 37.2313 27.2173 37.4768 27.7083C37.5996 27.9538 37.9187 28.1257 38.287 28.1993C38.6798 28.2484 39.0972 28.2484 39.5391 28.322V28.2975Z" fill="#DB5B20"/>
<path d="M45.4832 25.5402C45.6801 24.9914 45.0638 24.2681 44.1066 23.9246C43.1494 23.5812 42.2139 23.7476 42.0169 24.2964C41.82 24.8452 42.4363 25.5685 43.3935 25.912C44.3507 26.2554 45.2862 26.089 45.4832 25.5402Z" stroke="#DB5B20" stroke-width="0.63956" stroke-miterlimit="10"/>
</svg>
