<svg width="63" height="106" viewBox="0 0 63 106" fill="none" xmlns="http://www.w3.org/2000/svg">
<g filter="url(#filter0_d_1_338)">
<path d="M7.2422 36.5303C30.5009 37.6378 19.0478 55.6357 11.2193 45.1894C9.55801 42.1939 9.78455 39.0475 7.2422 36.5303ZM7.36807 36.5806C10.2377 38.0658 10.7159 42.0932 12.3017 44.5097C14.7182 48.8896 22.0432 47.6059 19.7274 42.0681C17.2858 38.0909 11.5969 37.3861 7.39324 36.5806H7.36807Z" fill="#DB5B20"/>
<path d="M9.91042 40.2557L4.62435 40.8346L4.82572 40.3312C8.17357 43.3518 13.51 49.9216 18.4437 47.1276L18.5443 47.2031C17.6885 48.4365 15.9768 48.9651 14.4665 48.7386C9.86008 47.782 7.01567 43.4273 3.99506 40.2053C4.14609 40.2053 9.60836 40.1046 9.91042 40.0795V40.2053V40.2557Z" fill="#DB5B20"/>
<path d="M12.7548 37.5875C11.2697 36.8827 12.05 35.4227 12.5786 34.3655C13.1324 33.0566 13.3338 31.5211 13.7114 30.1367C15.2217 33.0818 17.0844 35.8758 19.2995 38.3175C20.256 39.3999 21.4894 40.6081 21.8418 42.3701C22.3201 44.107 21.0363 45.6928 19.6519 46.4983L19.5764 46.3976C22.2698 43.5784 20.5077 41.615 18.343 39.123C16.4551 36.6561 14.8441 34.0131 13.5352 31.219L14.1644 31.1435C13.7869 32.8552 12.9562 34.5669 12.1507 36.0772C11.9745 36.5806 12.3521 37.1848 12.8052 37.4616L12.7548 37.5875Z" fill="#DB5B20"/>
<path d="M21.1874 44.7614C24.3087 47.1276 19.9791 51.1047 18.3681 47.3793L18.4437 47.2786C19.5009 47.48 20.1805 47.7569 21.0615 47.4296C21.7412 47.0017 21.7412 45.718 21.0615 44.837L21.1622 44.7614H21.1874Z" fill="#DB5B20"/>
<path d="M21.8419 47.6814C24.1073 49.4182 26.3728 51.3313 27.8831 53.8233C28.2355 54.4274 28.6131 56.4412 27.9334 56.7936C27.4048 54.9309 26.2217 53.7478 25.3407 52.1116C24.3842 50.5761 22.6977 49.091 21.867 47.6814H21.8419Z" fill="#DB5B20"/>
<path d="M27.6817 97.7229C27.6314 86.5466 27.5055 58.4801 27.4803 47.6814C27.5307 42.496 26.9517 35.6241 26.2721 31.3701C25.3155 29.8346 24.359 28.2488 23.7549 26.4364C21.8167 21.1755 25.5924 15.6377 23.8556 10.4523L21.9174 5.26691L24.8625 9.94886C29.5947 16.6446 26.0707 24.775 27.0021 32.1504C25.1645 25.354 28.7389 16.8711 23.9311 10.553L24.938 10.0495C26.3476 13.6491 25.0638 17.4249 24.6107 20.9741C23.9311 24.6744 25.5673 27.846 27.4048 30.9421C29.0661 40.6081 28.2606 54.5029 28.2858 64.3451C28.16 64.3199 28.0844 97.9746 27.7069 97.6977L27.6817 97.7229Z" fill="#DB5B20"/>
<path d="M27.6062 38.3678C27.43 36.3541 26.0455 34.6676 24.8625 33.0062C22.4208 27.2167 18.0912 22.8872 13.1324 19.1366C13.1072 19.1366 13.8624 18.4318 13.8372 18.4318C16.1782 21.83 18.5443 25.3289 20.2309 29.0795C21.4391 31.6218 22.6977 34.0886 25.0638 35.6241C25.97 36.2534 26.5741 38.1413 27.6062 38.3678ZM27.7069 38.4182C27.0776 38.6951 26.7 38.0406 26.2973 37.7134C25.9448 37.361 25.089 36.4044 24.7114 36.1527C20.1302 33.7362 18.8967 28.274 16.153 24.2968C14.6175 21.8551 13.0821 19.1114 11.6473 16.5942C17.1851 21.0245 22.748 26.0085 25.1645 32.8049C26.2469 34.4914 27.6565 36.2282 27.7069 38.4182Z" fill="#DB5B20"/>
<path d="M10.0615 36.9582C9.45733 36.5051 9.45733 35.5234 9.58318 34.8689C9.63353 34.0383 9.4825 33.0314 9.40698 32.1252L10.2628 32.3014C11.32 32.5028 12.1507 32.83 13.1324 33.3838C13.0065 33.8369 11.8738 33.8369 11.4459 33.8369C10.8669 33.8369 10.3383 33.6355 9.83491 33.3586L10.6152 32.8552C10.4894 33.8369 10.288 35.02 9.9356 35.9513C9.80974 36.4044 10.288 36.8827 10.0615 36.9582Z" fill="#DB5B20"/>
<path d="M58.1396 21.3517C54.9679 24.5989 51.6452 27.9719 47.0892 29.3311C42.7093 30.8666 36.2653 29.2305 35.9884 23.7934C35.4346 18.5576 41.2996 14.7315 46.0571 16.1663C48.3477 16.5439 50.1098 18.608 52.048 19.4135C53.8855 19.9672 57.4599 18.6331 58.1396 21.3769V21.3517ZM58.0137 21.3265C56.8055 18.9604 53.9359 20.7727 51.8214 20.2441C50.5125 19.9924 49.6063 19.0862 48.7001 18.5576C46.0319 16.8963 42.3569 16.5942 39.739 18.4318C35.9129 20.6721 36.0639 27.0153 40.4438 28.5256C47.1647 30.9673 53.4324 25.7568 57.9885 21.3265H58.0137Z" fill="#DB5B20"/>
<path d="M53.2814 19.9421C54.54 18.3563 55.5217 16.5942 56.1762 14.7315L56.5537 15.1594C53.7597 15.8643 50.8397 15.8643 48.0709 16.1412C45.2768 16.2418 42.4072 16.8208 39.8649 17.5004C42.08 15.5874 45.1761 14.9329 48.0205 14.8826C51.0915 14.8826 54.1121 15.0336 57.0572 14.4043C56.151 16.3174 54.8924 18.8345 53.3066 19.9421H53.2814Z" fill="#DB5B20"/>
<path d="M51.6956 26.5119C53.9359 28.2991 55.0686 31.3952 54.4897 34.3152C53.3066 33.3335 52.0732 32.2762 50.7642 31.5966C48.3981 30.338 45.7047 30.8414 43.0868 30.2625C42.0044 30.0359 39.7642 29.3311 39.4621 28.3243C41.8786 29.608 44.4965 29.1298 47.2402 29.4318C50.0594 29.608 52.5514 31.4204 54.4645 33.3586L53.8604 33.5852C54.4393 30.9421 53.2311 28.5005 51.7207 26.5622L51.6956 26.5119Z" fill="#DB5B20"/>
<path d="M56.7551 22.283C57.611 22.9375 59.5744 23.894 58.2654 25.3288C56.8055 26.5874 55.2952 28.4501 53.3318 28.5005C54.2883 26.6881 56.0755 25.7819 57.7117 24.7247C58.643 23.894 57.2082 23.1389 56.6544 22.3585L56.7551 22.283Z" fill="#DB5B20"/>
<path d="M56.8055 26.1595C57.6865 27.2167 59.0458 30.4135 57.4348 31.3952C56.2769 31.7728 55.4462 31.6973 54.2883 31.3952C54.3638 30.8918 55.6979 30.5645 56.1258 30.3883C56.4027 30.3128 56.881 30.2373 56.9817 30.2373C56.9817 30.2877 57.0824 30.2877 57.1579 29.9604C57.5858 28.1229 56.6544 26.5874 56.8306 26.1847L56.8055 26.1595Z" fill="#DB5B20"/>
<path d="M26.7 30.7408C26.1714 24.9261 27.3545 16.6194 33.2195 14.0519C29.1417 18.759 26.9769 24.7499 26.7 30.7408Z" fill="#DB5B20"/>
<path d="M36.0135 11.7361C35.7115 13.0702 34.4277 15.1091 32.7916 14.2784C31.1051 13.1205 31.684 10.7292 33.1691 10.2006L33.2698 10.2761C32.9929 11.4088 32.8923 12.5667 33.3957 13.4477C34.176 14.0015 35.5605 12.4661 35.938 11.6857L36.0639 11.7361H36.0135Z" fill="#DB5B20"/>
<path d="M43.0365 1.5918C41.2493 3.05177 31.7092 8.66508 34.176 11.1823C34.9564 11.7612 36.0891 11.4088 36.8191 10.6285C39.0342 7.58269 40.6704 5.04034 43.0365 1.56664V1.5918ZM43.112 1.49112C41.2745 4.31036 38.8076 15.1091 33.5216 11.9626C29.9723 8.31268 40.469 3.05177 43.112 1.49112Z" fill="#DB5B20"/>
<path d="M40.1921 3.27833L41.2493 0.584947L41.5765 0.887011C37.7001 2.82524 33.7733 6.14792 33.4209 10.6537L33.295 10.704C32.5902 9.6468 32.8419 8.18683 33.295 7.10444C34.6543 3.37902 38.6314 1.5163 42.0045 0.232544C41.8283 0.559777 40.5445 2.9511 40.3431 3.32867L40.2173 3.27833H40.1921Z" fill="#DB5B20"/>
<path d="M37.0959 26.084C33.0433 28.0474 30.6268 21.8048 34.2012 19.6904C35.0067 19.1618 37.1463 18.8849 37.5742 19.6652C34.7801 19.8917 31.9106 22.9879 34.2767 25.4044C34.9563 26.0588 36.0639 26.3357 37.0456 25.9833L37.0959 26.1092V26.084Z" fill="#DB5B20"/>
<path d="M32.9426 22.9375C29.0662 25.5302 28.4117 29.9605 27.0524 33.8117C25.5924 29.5577 29.2675 24.3723 32.9426 22.9375Z" fill="#DB5B20"/>
<path d="M28.16 49.9217C27.3293 41.3129 32.0113 33.56 36.5925 26.7133C37.7756 35.1207 35.4094 44.8118 28.16 49.9217ZM28.2103 49.7958C33.5971 44.107 36.1394 36.0017 35.7115 28.1984L36.6177 28.4501C32.1371 34.6927 27.9838 41.8919 28.1851 49.7958H28.2103Z" fill="#DB5B20"/>
<path d="M27.6062 77.5855C27.2034 63.011 33.5216 48.5373 44.3706 38.7958L42.7596 41.7409C39.3362 48.2604 40.5445 56.1895 37.8008 63.0362C35.3088 70.034 31.2309 76.2011 27.9083 82.7961C28.7893 79.5237 30.9037 75.9745 32.3385 72.7022C35.636 66.1323 38.2035 59.3863 38.8832 52.011C39.4118 48.3862 40.0411 44.6105 41.9289 41.2878L42.6841 41.8667C33.0181 51.0293 27.9586 64.6724 27.6314 77.6107L27.6062 77.5855Z" fill="#DB5B20"/>
<path d="M27.7572 79.6496C27.6817 74.9928 25.4414 70.8143 23.6794 66.6106C21.7412 62.5831 21.565 57.4732 18.3178 54.2261L19.0478 53.8485C20.2812 59.4618 19.3247 65.5282 20.5077 71.0156C21.1622 73.9104 23.327 75.6472 25.2149 77.8624C27.1783 80.2537 27.9082 83.2995 28.0593 86.1942H27.5558C27.6817 84.0295 27.7069 81.8395 27.7824 79.6496H27.7572ZM27.8831 79.6496C27.9334 81.8395 27.9334 84.0295 28.0341 86.2194H27.5307C27.1531 83.4002 26.1211 80.6564 24.3087 78.6175C20.986 75.7228 18.3681 71.5442 18.7457 66.9378C18.7457 62.7593 18.8464 58.1025 18.1668 53.9743L17.9654 52.6654C22.0684 56.1895 22.2446 61.7524 24.1073 66.4092C25.6931 70.6884 27.732 74.9676 27.8579 79.6244L27.8831 79.6496Z" fill="#DB5B20"/>
</g>
<defs>
<filter id="filter0_d_1_338" x="-0.00494385" y="0.232544" width="62.7079" height="105.49" filterUnits="userSpaceOnUse" color-interpolation-filters="sRGB">
<feFlood flood-opacity="0" result="BackgroundImageFix"/>
<feColorMatrix in="SourceAlpha" type="matrix" values="0 0 0 0 0 0 0 0 0 0 0 0 0 0 0 0 0 0 127 0" result="hardAlpha"/>
<feOffset dy="4"/>
<feGaussianBlur stdDeviation="2"/>
<feComposite in2="hardAlpha" operator="out"/>
<feColorMatrix type="matrix" values="0 0 0 0 0 0 0 0 0 0 0 0 0 0 0 0 0 0 0.25 0"/>
<feBlend mode="normal" in2="BackgroundImageFix" result="effect1_dropShadow_1_338"/>
<feBlend mode="normal" in="SourceGraphic" in2="effect1_dropShadow_1_338" result="shape"/>
</filter>
</defs>
</svg>
